<?xml version="1.0" encoding="UTF-8"?>
<!-- Created with Inkscape (http://www.inkscape.org/) -->
<svg width="512" height="512" version="1.1" viewBox="0 0 512 512" xmlns="http://www.w3.org/2000/svg" xmlns:cc="http://creativecommons.org/ns#" xmlns:dc="http://purl.org/dc/elements/1.1/" xmlns:rdf="http://www.w3.org/1999/02/22-rdf-syntax-ns#">
 <title>favicon</title>
 <g transform="scale(28.139)" stroke-width=".035538">
  <path x="75.151398" y="85.087105" width="18.195608" height="18.195608" rx="3.3122132" ry="3.3122132" d="m0 0h18.196v18.196h-18.196v-18.196z" fill="#fff"/>
  <path d="m1.7548e-6 3.6944e-6v3.6747h3.6747v-3.6747zm3.9383 0v3.6747h5.0276v-3.6747zm5.2912 0v3.6747h5.0276v-3.6747zm5.2932 0v3.6747h3.6732v-3.6747zm-14.523 3.9383v5.0276h3.6747v-5.0276zm3.9383 0v5.0276h5.0276v-5.0276zm5.2912 0v5.0276h5.0276v-5.0276zm5.2932 0v5.0276h3.6732v-5.0276zm-14.523 5.2911v5.0271h3.6747v-5.0271zm3.9383 0v5.0271h5.0276v-5.0271zm5.2912 0v5.0271h5.0276v-5.0271zm5.2932 0v5.0271h3.6732v-5.0271zm-14.523 5.2927v3.6737h3.6747v-3.6737zm3.9383 0v3.6737h5.0276v-3.6737zm5.2912 0v3.6737h5.0276v-3.6737zm5.2932 0v3.6737h3.6732v-3.6737z" stroke-linecap="round" stroke-width=".028209"/>
  <g transform="translate(-75.151 -85.087)" fill="#e61f00" stroke-width=".0094028" aria-label="EP">
   <path d="m75.367 98.972 1.9985-9.5745h7.0993l-0.33308 1.6001h-5.1269l-0.45717 2.1748h4.9571l-0.33308 1.6001h-4.9571l-0.60086 2.5994h5.571l-0.33962 1.6001z"/>
   <path d="m86.254 98.972h-1.9724l2.005-9.5745h3.8925q1.0384 0 1.6393 0.24818 0.60739 0.24165 0.96006 0.80985 0.35268 0.56167 0.35268 1.3454 0 0.72495-0.28084 1.4107-0.28084 0.68576-0.69229 1.0972-0.40492 0.41146-0.87516 0.62698-0.47024 0.20899-1.267 0.32002-0.4637 0.06531-1.7373 0.06531h-1.2605zm1.0907-5.2379h0.60739q1.5609 0 2.0834-0.19593 0.52248-0.19593 0.82291-0.62698 0.30043-0.43105 0.30043-0.947 0-0.34615-0.15675-0.5682-0.15021-0.22206-0.43105-0.32002-0.2743-0.1045-1.2344-0.1045h-1.4107z"/>
  </g>
 </g>
 <text x="-2.7976763" y="-4.5935822" fill="#000000" font-family="sans-serif" font-size="11.289px" letter-spacing="0px" stroke-width=".26458" word-spacing="0px" style="line-height:1.25" xml:space="preserve"><tspan x="-2.7976763" y="-4.5935822" stroke-width=".26458"/></text>
 <metadata>
  <rdf:RDF>
   <cc:Work rdf:about="">
    <dc:title>favicon</dc:title>
   </cc:Work>
  </rdf:RDF>
 </metadata>
</svg>
