<?xml version="1.0" encoding="UTF-8" standalone="no"?>
<!-- Created with Inkscape (http://www.inkscape.org/) -->

<svg
   width="114.37728mm"
   height="10.456565mm"
   viewBox="0 0 114.37728 10.456565"
   version="1.1"
   id="svg5"
   xmlns="http://www.w3.org/2000/svg"
   xmlns:svg="http://www.w3.org/2000/svg"
   xmlns:rdf="http://www.w3.org/1999/02/22-rdf-syntax-ns#"
   xmlns:cc="http://creativecommons.org/ns#"
   xmlns:dc="http://purl.org/dc/elements/1.1/">
  <title
     id="title1090">EngineeringPaperXYZ</title>
  <defs
     id="defs2" />
  <g
     id="layer1"
     transform="translate(-49.738481,-78.028108)">
    <g
       aria-label="EngineeringPaper.xyz"
       id="text2058-2"
       style="font-weight:bold;font-size:11.2889px;line-height:1.25;font-family:'Yu Gothic';-inkscape-font-specification:'Yu Gothic Bold';letter-spacing:0px;word-spacing:0px;fill:#b31700;stroke-width:0.264583">
      <path
         d="m 49.738481,86.108932 1.68672,-8.080824 h 5.991716 l -0.28112,1.350479 h -4.327044 l -0.385851,1.835549 h 4.183728 l -0.28112,1.350479 h -4.183728 l -0.507119,2.193839 h 4.701871 l -0.286632,1.350478 z"
         style="fill:#e61f00"
         id="path1010" />
      <path
         d="m 58.502812,80.25502 h 1.499307 l -0.15434,0.760678 q 0.56224,-0.48507 1.04731,-0.68902 0.490582,-0.209462 1.030774,-0.209462 0.722092,0 1.135504,0.413412 0.418924,0.413412 0.418924,1.09692 0,0.308681 -0.181901,1.168577 l -0.68902,3.312807 h -1.581989 l 0.694532,-3.323831 q 0.15434,-0.744141 0.15434,-0.887458 0,-0.303168 -0.181901,-0.474045 -0.176389,-0.176389 -0.496094,-0.176389 -0.347266,0 -0.771702,0.292144 -0.424437,0.292145 -0.666972,0.771702 -0.176389,0.341754 -0.396875,1.394576 l -0.501606,2.403301 h -1.58199 z"
         style="font-style:italic;font-family:Arial;-inkscape-font-specification:'Arial Bold Italic';fill:#ffffff"
         id="path1012" />
      <path
         d="m 64.070092,86.417613 1.670184,0.242535 q 0,0.25356 0.08268,0.380339 0.08268,0.132292 0.264584,0.220487 0.187413,0.09371 0.507118,0.09371 0.501607,0 0.804775,-0.198437 0.225999,-0.154341 0.369315,-0.496095 0.08819,-0.214974 0.225998,-0.937067 l 0.05512,-0.275608 q -0.821312,0.683508 -1.697745,0.683508 -0.859896,0 -1.411112,-0.606337 -0.551216,-0.606338 -0.551216,-1.774915 0,-1.030774 0.374827,-1.890671 0.374826,-0.859896 1.052822,-1.300869 0.677995,-0.440973 1.383552,-0.440973 0.584288,0 1.069358,0.308681 0.48507,0.308681 0.755166,0.865409 l 0.220486,-1.036286 h 1.482771 l -1.014237,4.87826 q -0.248047,1.17409 -0.418924,1.675697 -0.170877,0.501606 -0.391363,0.799263 -0.220487,0.297656 -0.556728,0.496094 -0.336242,0.20395 -0.793751,0.292144 -0.457509,0.08819 -0.992189,0.08819 -1.240235,0 -1.874134,-0.424436 -0.633898,-0.424437 -0.633898,-1.411113 0,-0.104731 0.01654,-0.231511 z m 1.863109,-2.827737 q 0,0.666971 0.297657,1.019749 0.303168,0.347266 0.755165,0.347266 0.413412,0 0.799263,-0.314193 0.391364,-0.314193 0.595314,-0.892969 0.209462,-0.578777 0.209462,-1.118968 0,-0.622874 -0.336242,-1.003213 -0.336242,-0.380339 -0.777214,-0.380339 -0.424437,0 -0.782727,0.336241 -0.352778,0.336242 -0.584289,1.036286 -0.176389,0.540192 -0.176389,0.97014 z"
         style="font-style:italic;font-family:Arial;-inkscape-font-specification:'Arial Bold Italic';fill:#ffffff"
         id="path1014" />
      <path
         d="m 72.735204,78.028108 h 1.58199 l -0.297657,1.433161 h -1.581989 z m -0.463021,2.226912 h 1.58199 l -1.2237,5.853912 h -1.581989 z"
         style="font-style:italic;font-family:Arial;-inkscape-font-specification:'Arial Bold Italic';fill:#ffffff"
         id="path1016" />
      <path
         d="m 75.430651,80.25502 h 1.499307 l -0.15434,0.760678 q 0.56224,-0.48507 1.04731,-0.68902 0.490582,-0.209462 1.030773,-0.209462 0.722093,0 1.135505,0.413412 0.418924,0.413412 0.418924,1.09692 0,0.308681 -0.181901,1.168577 l -0.68902,3.312807 H 77.95522 l 0.694532,-3.323831 q 0.15434,-0.744141 0.15434,-0.887458 0,-0.303168 -0.181901,-0.474045 -0.176389,-0.176389 -0.496094,-0.176389 -0.347266,0 -0.771703,0.292144 -0.424436,0.292145 -0.666971,0.771702 -0.176389,0.341754 -0.396875,1.394576 l -0.501607,2.403301 h -1.581989 z"
         style="font-style:italic;font-family:Arial;-inkscape-font-specification:'Arial Bold Italic';fill:#ffffff"
         id="path1018" />
      <path
         d="m 86.780185,83.672558 h -3.968754 q -0.0055,0.09371 -0.0055,0.143317 0,0.584288 0.330729,0.942579 0.336242,0.35829 0.8158,0.35829 0.788238,0 1.229211,-0.815799 l 1.416625,0.237022 q -0.413412,0.854385 -1.107944,1.284333 -0.68902,0.424436 -1.548916,0.424436 -1.179602,0 -1.918232,-0.744141 -0.738629,-0.749653 -0.738629,-1.978865 0,-1.20165 0.666971,-2.138717 0.909506,-1.267797 2.596227,-1.267797 1.074871,0 1.708769,0.666971 0.633898,0.66146 0.633898,1.857598 0,0.573264 -0.110243,1.030773 z m -1.333942,-0.964627 q 0.0055,-0.104731 0.0055,-0.159853 0,-0.650435 -0.292144,-0.975652 -0.292145,-0.325217 -0.782727,-0.325217 -0.490582,0 -0.881945,0.369314 -0.385851,0.369315 -0.523655,1.091408 z"
         style="font-style:italic;font-family:Arial;-inkscape-font-specification:'Arial Bold Italic';fill:#ffffff"
         id="path1020" />
      <path
         d="m 93.058532,83.672558 h -3.968754 q -0.0055,0.09371 -0.0055,0.143317 0,0.584288 0.330729,0.942579 0.336242,0.35829 0.8158,0.35829 0.788239,0 1.229211,-0.815799 l 1.416625,0.237022 q -0.413412,0.854385 -1.107944,1.284333 -0.68902,0.424436 -1.548916,0.424436 -1.179602,0 -1.918232,-0.744141 -0.738629,-0.749653 -0.738629,-1.978865 0,-1.20165 0.666971,-2.138717 0.909506,-1.267797 2.596227,-1.267797 1.074871,0 1.708769,0.666971 0.633898,0.66146 0.633898,1.857598 0,0.573264 -0.110243,1.030773 z M 91.72459,82.707931 q 0.0055,-0.104731 0.0055,-0.159853 0,-0.650435 -0.292144,-0.975652 -0.292145,-0.325217 -0.782727,-0.325217 -0.490582,0 -0.881945,0.369314 -0.385851,0.369315 -0.523655,1.091408 z"
         style="font-style:italic;font-family:Arial;-inkscape-font-specification:'Arial Bold Italic';fill:#ffffff"
         id="path1022" />
      <path
         d="m 94.772816,80.25502 h 1.477258 l -0.237023,1.135505 q 0.826824,-1.273309 1.791452,-1.273309 0.341754,0 0.733117,0.170877 l -0.606337,1.295357 q -0.214975,-0.07717 -0.45751,-0.07717 -0.407899,0 -0.832336,0.308681 -0.418924,0.308681 -0.655946,0.826824 -0.237023,0.512631 -0.468534,1.631599 l -0.385851,1.835548 h -1.581989 z"
         style="font-style:italic;font-family:Arial;-inkscape-font-specification:'Arial Bold Italic';fill:#ffffff"
         id="path1024" />
      <path
         d="m 99.71722,78.028108 h 1.58199 l -0.29766,1.433161 h -1.581986 z m -0.463021,2.226912 h 1.581991 l -1.223701,5.853912 H 98.0305 Z"
         style="font-style:italic;font-family:Arial;-inkscape-font-specification:'Arial Bold Italic';fill:#ffffff"
         id="path1026" />
      <path
         d="m 102.41266,80.25502 h 1.49931 l -0.15434,0.760678 q 0.56224,-0.48507 1.04731,-0.68902 0.49058,-0.209462 1.03078,-0.209462 0.72209,0 1.1355,0.413412 0.41892,0.413412 0.41892,1.09692 0,0.308681 -0.1819,1.168577 l -0.68902,3.312807 h -1.58199 l 0.69454,-3.323831 q 0.15434,-0.744141 0.15434,-0.887458 0,-0.303168 -0.18191,-0.474045 -0.17638,-0.176389 -0.49609,-0.176389 -0.34727,0 -0.7717,0.292144 -0.42444,0.292145 -0.66697,0.771702 -0.17639,0.341754 -0.39688,1.394576 l -0.5016,2.403301 h -1.58199 z"
         style="font-style:italic;font-family:Arial;-inkscape-font-specification:'Arial Bold Italic';fill:#ffffff"
         id="path1028" />
      <path
         d="m 107.97994,86.417613 1.67019,0.242535 q 0,0.25356 0.0827,0.380339 0.0827,0.132292 0.26458,0.220487 0.18742,0.09371 0.50712,0.09371 0.50161,0 0.80478,-0.198437 0.226,-0.154341 0.36931,-0.496095 0.0882,-0.214974 0.226,-0.937067 l 0.0551,-0.275608 q -0.82131,0.683508 -1.69774,0.683508 -0.8599,0 -1.41111,-0.606337 -0.55122,-0.606338 -0.55122,-1.774915 0,-1.030774 0.37483,-1.890671 0.37482,-0.859896 1.05282,-1.300869 0.67799,-0.440973 1.38355,-0.440973 0.58429,0 1.06936,0.308681 0.48507,0.308681 0.75517,0.865409 l 0.22048,-1.036286 h 1.48277 l -1.01424,4.87826 q -0.24804,1.17409 -0.41892,1.675697 -0.17088,0.501606 -0.39136,0.799263 -0.22049,0.297656 -0.55673,0.496094 -0.33624,0.20395 -0.79375,0.292144 -0.45751,0.08819 -0.99219,0.08819 -1.24024,0 -1.87413,-0.424436 -0.6339,-0.424437 -0.6339,-1.411113 0,-0.104731 0.0165,-0.231511 z m 1.86311,-2.827737 q 0,0.666971 0.29766,1.019749 0.30317,0.347266 0.75517,0.347266 0.41341,0 0.79926,-0.314193 0.39136,-0.314193 0.59531,-0.892969 0.20946,-0.578777 0.20946,-1.118968 0,-0.622874 -0.33624,-1.003213 -0.33624,-0.380339 -0.77721,-0.380339 -0.42444,0 -0.78273,0.336241 -0.35278,0.336242 -0.58429,1.036286 -0.17639,0.540192 -0.17639,0.97014 z"
         style="font-style:italic;font-family:Arial;-inkscape-font-specification:'Arial Bold Italic';fill:#ffffff"
         id="path1030" />
      <path
         d="m 116.62852,86.108932 h -1.66467 l 1.69223,-8.080824 h 3.28525 q 0.87643,0 1.38355,0.209462 0.51263,0.20395 0.81029,0.683508 0.29765,0.474046 0.29765,1.135505 0,0.611849 -0.23702,1.190626 -0.23702,0.578776 -0.58429,0.926042 -0.34175,0.347266 -0.73863,0.529168 -0.39687,0.176389 -1.06936,0.270095 -0.39136,0.05512 -1.46623,0.05512 h -1.06385 z m 0.92053,-4.420751 h 0.51263 q 1.31741,0 1.75838,-0.165364 0.44097,-0.165365 0.69453,-0.529167 0.25356,-0.363803 0.25356,-0.799263 0,-0.292145 -0.13229,-0.479558 -0.12678,-0.187414 -0.3638,-0.270096 -0.23151,-0.08819 -1.0418,-0.08819 h -1.19063 z"
         style="fill:#e61f00"
         id="path1032" />
      <path
         d="m 124.72037,81.91418 -1.5434,-0.132292 q 0.26458,-0.782726 0.92053,-1.223699 0.66146,-0.440973 1.74735,-0.440973 1.12999,0 1.67019,0.457509 0.54019,0.451997 0.54019,1.107944 0,0.264584 -0.0496,0.56224 -0.0441,0.297657 -0.32522,1.565453 -0.23151,1.047311 -0.23151,1.466235 0,0.374826 0.13229,0.832335 h -1.53789 q -0.0937,-0.319705 -0.11576,-0.661459 -0.34726,0.385852 -0.79926,0.595314 -0.452,0.203949 -0.90951,0.203949 -0.7276,0 -1.20165,-0.474045 -0.47404,-0.479558 -0.47404,-1.229211 0,-0.837849 0.51814,-1.339455 0.52366,-0.501606 1.86311,-0.606337 1.12999,-0.09371 1.51033,-0.225999 0.0992,-0.330729 0.0992,-0.529167 0,-0.253559 -0.20395,-0.424436 -0.20395,-0.170877 -0.60634,-0.170877 -0.42443,0 -0.67248,0.176389 -0.24253,0.170877 -0.33073,0.490582 z m 1.50482,1.466234 q -0.14332,0.03858 -0.38034,0.07166 -1.19063,0.143316 -1.55443,0.418924 -0.25907,0.198438 -0.25907,0.53468 0,0.275607 0.19844,0.468533 0.19844,0.187413 0.52365,0.187413 0.35829,0 0.67249,-0.170877 0.3197,-0.176389 0.47404,-0.446484 0.15986,-0.275608 0.28112,-0.854385 z"
         style="font-style:italic;font-family:Arial;-inkscape-font-specification:'Arial Bold Italic';fill:#ffffff"
         id="path1034" />
      <path
         d="m 129.94039,80.25502 h 1.4993 l -0.12678,0.600826 q 0.47956,-0.396876 0.89849,-0.567753 0.41892,-0.170877 0.89848,-0.170877 0.92053,0 1.47726,0.633899 0.56224,0.633898 0.56224,1.89067 0,1.581989 -0.96463,2.673397 -0.82682,0.931554 -1.95682,0.931554 -1.16306,0 -1.75838,-0.942579 l -0.63389,3.0372 h -1.58199 z m 0.9536,3.356905 q 0,0.683507 0.33073,1.063846 0.33624,0.374827 0.78824,0.374827 0.39136,0 0.75516,-0.28112 0.36381,-0.286632 0.60083,-0.942579 0.24253,-0.661459 0.24253,-1.223699 0,-0.655947 -0.31419,-1.003213 -0.31419,-0.352778 -0.79926,-0.352778 -0.452,0 -0.82683,0.325217 -0.36931,0.319705 -0.57326,0.948091 -0.20395,0.622874 -0.20395,1.091408 z"
         style="font-style:italic;font-family:Arial;-inkscape-font-specification:'Arial Bold Italic';fill:#ffffff"
         id="path1036" />
      <path
         d="m 141.36158,83.672558 h -3.96876 q -0.006,0.09371 -0.006,0.143317 0,0.584288 0.33073,0.942579 0.33624,0.35829 0.8158,0.35829 0.78824,0 1.22921,-0.815799 l 1.41662,0.237022 q -0.41341,0.854385 -1.10794,1.284333 -0.68902,0.424436 -1.54892,0.424436 -1.1796,0 -1.91823,-0.744141 -0.73863,-0.749653 -0.73863,-1.978865 0,-1.20165 0.66697,-2.138717 0.90951,-1.267797 2.59623,-1.267797 1.07487,0 1.70877,0.666971 0.6339,0.66146 0.6339,1.857598 0,0.573264 -0.11024,1.030773 z m -1.33395,-0.964627 q 0.006,-0.104731 0.006,-0.159853 0,-0.650435 -0.29215,-0.975652 -0.29214,-0.325217 -0.78273,-0.325217 -0.49058,0 -0.88194,0.369314 -0.38585,0.369315 -0.52366,1.091408 z"
         style="font-style:italic;font-family:Arial;-inkscape-font-specification:'Arial Bold Italic';fill:#ffffff"
         id="path1038" />
      <path
         d="m 143.07586,80.25502 h 1.47726 l -0.23703,1.135505 q 0.82683,-1.273309 1.79146,-1.273309 0.34175,0 0.73311,0.170877 l -0.60633,1.295357 q -0.21498,-0.07717 -0.45751,-0.07717 -0.4079,0 -0.83234,0.308681 -0.41892,0.308681 -0.65595,0.826824 -0.23702,0.512631 -0.46853,1.631599 l -0.38585,1.835548 h -1.58199 z"
         style="font-style:italic;font-family:Arial;-inkscape-font-specification:'Arial Bold Italic';fill:#ffffff"
         id="path1040" />
      <path
         d="m 146.69735,84.582065 h 1.56545 l -0.31971,1.526867 h -1.56545 z"
         style="font-style:italic;font-family:Arial;-inkscape-font-specification:'Arial Bold Italic';fill:#e61f00"
         id="path1042" />
      <path
         d="m 151.59766,84.466309 -1.19614,1.642623 h -1.5875 l 2.2214,-2.998614 -1.2237,-2.855298 h 1.37804 l 0.70004,1.670184 1.21819,-1.670184 h 1.57648 l -2.22692,3.0372 1.21268,2.816712 h -1.37804 z"
         style="font-style:italic;font-stretch:condensed;font-size:11.2889px;font-family:Arial;-inkscape-font-specification:'Arial Bold Italic Condensed';fill:#e61f00"
         id="path1044" />
      <path
         d="m 154.94354,80.25502 h 1.28984 l 0.32522,2.915932 q 0.12127,1.118968 0.1378,1.576477 0.25356,-0.903994 0.69453,-1.896182 l 1.15204,-2.596227 h 1.37253 l -2.96554,6.427177 q -0.41892,0.903994 -0.64492,1.207163 -0.226,0.308681 -0.51263,0.451997 -0.28112,0.143316 -0.63941,0.143316 -0.4079,0 -0.92605,-0.176389 l 0.11576,-1.179602 q 0.23151,0.08268 0.452,0.08268 0.59531,0 0.98667,-1.102432 z"
         style="font-style:italic;font-stretch:condensed;font-size:11.2889px;font-family:Arial;-inkscape-font-specification:'Arial Bold Italic Condensed';fill:#e61f00"
         id="path1046" />
      <path
         d="m 159.46901,86.108932 0.18742,-1.069358 2.6293,-3.54983 h -2.14423 l 0.20946,-1.234724 h 3.7648 l -0.15985,0.942579 -2.65135,3.632513 h 2.3096 l -0.22049,1.27882 z"
         style="font-style:italic;font-stretch:condensed;font-size:11.2889px;font-family:Arial;-inkscape-font-specification:'Arial Bold Italic Condensed';fill:#e61f00"
         id="path1048" />
    </g>
    <text
       xml:space="preserve"
       style="font-style:normal;font-weight:normal;font-size:11.2889px;line-height:1.25;font-family:sans-serif;letter-spacing:0px;word-spacing:0px;fill:#000000;fill-opacity:1;stroke:none;stroke-width:0.264583"
       x="72.353722"
       y="80.493523"
       id="text27804"><tspan
         id="tspan27802"
         style="stroke-width:0.264583"
         x="72.353722"
         y="80.493523" /></text>
  </g>
  <metadata
     id="metadata1088">
    <rdf:RDF>
      <cc:Work
         rdf:about="">
        <dc:title>EngineeringPaperXYZ</dc:title>
      </cc:Work>
    </rdf:RDF>
  </metadata>
</svg>
