<?xml version="1.0" encoding="UTF-8" standalone="no"?>
<!-- Created with Inkscape (http://www.inkscape.org/) -->

<svg
   width="512"
   height="512"
   viewBox="0 0 135.46666 135.46666"
   version="1.1"
   id="svg5"
   sodipodi:docname="icon_circular.svg"
   inkscape:version="1.3.2 (1:1.3.2+202404261509+091e20ef0f)"
   inkscape:export-filename="icon-maskable-192.png"
   inkscape:export-xdpi="36"
   inkscape:export-ydpi="36"
   xmlns:inkscape="http://www.inkscape.org/namespaces/inkscape"
   xmlns:sodipodi="http://sodipodi.sourceforge.net/DTD/sodipodi-0.dtd"
   xmlns="http://www.w3.org/2000/svg"
   xmlns:svg="http://www.w3.org/2000/svg"
   xmlns:rdf="http://www.w3.org/1999/02/22-rdf-syntax-ns#"
   xmlns:cc="http://creativecommons.org/ns#"
   xmlns:dc="http://purl.org/dc/elements/1.1/">
  <sodipodi:namedview
     id="namedview14"
     pagecolor="#ffffff"
     bordercolor="#666666"
     borderopacity="1.0"
     inkscape:showpageshadow="2"
     inkscape:pageopacity="1"
     inkscape:pagecheckerboard="true"
     inkscape:deskcolor="#d1d1d1"
     inkscape:document-units="mm"
     showgrid="false"
     inkscape:zoom="1"
     inkscape:cx="248"
     inkscape:cy="309"
     inkscape:window-width="1452"
     inkscape:window-height="1212"
     inkscape:window-x="26"
     inkscape:window-y="23"
     inkscape:window-maximized="0"
     inkscape:current-layer="svg5" />
  <title
     id="title874">favicon</title>
  <defs
     id="defs2">
    <clipPath
       clipPathUnits="userSpaceOnUse"
       id="clipPath66">
      <path
         id="path67"
         style="fill:none;fill-opacity:1;stroke:#000000;stroke-width:0.396877;stroke-opacity:1;stop-color:#000000"
         d="M 84.24898,82.950285 A 11.234401,11.234401 0 0 0 73.014578,94.184687 11.234401,11.234401 0 0 0 84.24898,105.41909 11.234401,11.234401 0 0 0 95.483382,94.184687 11.234401,11.234401 0 0 0 84.24898,82.950285 Z" />
    </clipPath>
    <clipPath
       clipPathUnits="userSpaceOnUse"
       id="clipPath67">
      <path
         id="path68"
         style="fill:none;fill-opacity:1;stroke:#000000;stroke-width:0.396878;stroke-opacity:1;stop-color:#000000"
         d="M 67.733333,5.8079143 A 61.925414,61.925414 0 0 0 5.8079143,67.733333 61.925414,61.925414 0 0 0 67.733333,129.65875 61.925414,61.925414 0 0 0 129.65875,67.733333 61.925414,61.925414 0 0 0 67.733333,5.8079143 Z" />
    </clipPath>
    <clipPath
       clipPathUnits="userSpaceOnUse"
       id="clipPath68">
      <path
         id="path69"
         style="fill:none;fill-opacity:1;stroke:#000000;stroke-width:0.396878;stroke-opacity:1;stop-color:#000000"
         d="M 67.733333,5.8079143 A 61.925414,61.925414 0 0 0 5.8079143,67.733333 61.925414,61.925414 0 0 0 67.733333,129.65875 61.925414,61.925414 0 0 0 129.65875,67.733333 61.925414,61.925414 0 0 0 67.733333,5.8079143 Z" />
    </clipPath>
    <clipPath
       clipPathUnits="userSpaceOnUse"
       id="clipPath69">
      <path
         id="path70"
         style="fill:none;fill-opacity:1;stroke:#000000;stroke-width:0.396878;stroke-opacity:1;stop-color:#000000"
         d="M 67.733333,5.8079143 A 61.925414,61.925414 0 0 0 5.8079143,67.733333 61.925414,61.925414 0 0 0 67.733333,129.65875 61.925414,61.925414 0 0 0 129.65875,67.733333 61.925414,61.925414 0 0 0 67.733333,5.8079143 Z" />
    </clipPath>
    <clipPath
       clipPathUnits="userSpaceOnUse"
       id="clipPath69-3">
      <path
         id="path70-6"
         style="fill:none;fill-opacity:1;stroke:#000000;stroke-width:0.396878;stroke-opacity:1;stop-color:#000000"
         d="M 67.733333,5.8079143 A 61.925414,61.925414 0 0 0 5.8079143,67.733333 61.925414,61.925414 0 0 0 67.733333,129.65875 61.925414,61.925414 0 0 0 129.65875,67.733333 61.925414,61.925414 0 0 0 67.733333,5.8079143 Z" />
    </clipPath>
    <clipPath
       clipPathUnits="userSpaceOnUse"
       id="clipPath68-7">
      <path
         id="path69-5"
         style="fill:none;fill-opacity:1;stroke:#000000;stroke-width:0.396878;stroke-opacity:1;stop-color:#000000"
         d="M 67.733333,5.8079143 A 61.925414,61.925414 0 0 0 5.8079143,67.733333 61.925414,61.925414 0 0 0 67.733333,129.65875 61.925414,61.925414 0 0 0 129.65875,67.733333 61.925414,61.925414 0 0 0 67.733333,5.8079143 Z" />
    </clipPath>
    <clipPath
       clipPathUnits="userSpaceOnUse"
       id="clipPath67-3">
      <path
         id="path68-5"
         style="fill:none;fill-opacity:1;stroke:#000000;stroke-width:0.396878;stroke-opacity:1;stop-color:#000000"
         d="M 67.733333,5.8079143 A 61.925414,61.925414 0 0 0 5.8079143,67.733333 61.925414,61.925414 0 0 0 67.733333,129.65875 61.925414,61.925414 0 0 0 129.65875,67.733333 61.925414,61.925414 0 0 0 67.733333,5.8079143 Z" />
    </clipPath>
    <clipPath
       clipPathUnits="userSpaceOnUse"
       id="clipPath66-6">
      <path
         id="path67-2"
         style="fill:none;fill-opacity:1;stroke:#000000;stroke-width:0.396877;stroke-opacity:1;stop-color:#000000"
         d="M 84.24898,82.950285 A 11.234401,11.234401 0 0 0 73.014578,94.184687 11.234401,11.234401 0 0 0 84.24898,105.41909 11.234401,11.234401 0 0 0 95.483382,94.184687 11.234401,11.234401 0 0 0 84.24898,82.950285 Z" />
    </clipPath>
  </defs>
  <path
     style="fill:#ffffff;stroke:none;stroke-width:16.5364;stroke-linecap:round"
     id="path1438"
     width="18.195608"
     height="18.195608"
     x="75.151398"
     y="85.087105"
     rx="3.3122132"
     ry="3.3122132"
     d="M 17.718624,17.718626 H 117.75049 V 117.75048 H 17.718624 Z"
     sodipodi:nodetypes="ccccc"
     clip-path="url(#clipPath68)" />
  <path
     id="path66-9"
     clip-path="url(#clipPath69-3)"
     style="fill:#000000;fill-opacity:1;stroke:#000000;stroke-width:0.396875;stroke-opacity:1;stop-color:#000000"
     d="M 67.733333,5.8079167 A 61.925415,61.925415 0 0 0 31.681787,17.586526 H 17.586523 V 31.68179 A 61.925415,61.925415 0 0 0 5.807914,67.733336 61.925415,61.925415 0 0 0 17.586523,103.78488 v 14.09888 h 14.100432 a 61.925415,61.925415 0 0 0 36.046378,11.77499 61.925415,61.925415 0 0 0 36.284607,-11.77499 h 13.86582 V 104.01794 A 61.925415,61.925415 0 0 0 129.65875,67.733336 61.925415,61.925415 0 0 0 117.88376,31.448729 V 17.586526 H 104.02311 A 61.925415,61.925415 0 0 0 67.733333,5.8079167 Z M 37.841618,17.718818 h 1.453141 V 37.84162 h 27.71252 V 17.718818 h 1.452625 V 37.84162 H 96.172941 V 17.718818 h 1.463993 V 37.84162 h 20.113506 v 1.453142 H 97.636934 v 27.71252 h 20.113506 v 1.452624 H 97.636934 v 27.709937 h 20.113506 v 1.463993 H 97.636934 V 117.75044 H 96.172941 V 97.633836 H 68.459904 V 117.75044 H 67.007279 V 97.633836 H 39.294759 V 117.75044 H 37.841618 V 97.633836 H 17.718815 V 96.169843 H 37.841618 V 68.459906 H 17.718815 V 67.007282 H 37.841618 V 39.294762 H 17.718815 V 37.84162 h 20.122803 z m 1.453141,21.575944 v 27.71252 h 27.71252 v -27.71252 z m 29.165145,0 v 27.71252 H 96.172941 V 39.294762 Z M 39.294759,68.459906 v 27.709937 h 27.71252 V 68.459906 Z m 29.165145,0 V 96.169843 H 96.172941 V 68.459906 Z" />
  <g
     aria-label="EP"
     id="text2058-2"
     style="font-weight:bold;font-size:13.3756px;line-height:1.25;font-family:'Yu Gothic';-inkscape-font-specification:'Yu Gothic Bold';letter-spacing:0px;word-spacing:0px;fill:#b31700;stroke-width:0.264582"
     transform="matrix(5.5121242,0,0,5.5121242,-396.65751,-451.42436)"
     clip-path="url(#clipPath66)">
    <path
       d="m 75.366983,98.972153 1.998503,-9.574526 h 7.099256 l -0.333083,1.600108 h -5.126878 l -0.457174,2.174841 h 4.95707 l -0.333084,1.600109 h -4.95707 l -0.600857,2.599359 h 5.57099 l -0.339615,1.600109 z"
       style="fill:#e61f00"
       id="path830" />
    <path
       d="m 86.254252,98.972153 h -1.972379 l 2.005034,-9.574526 h 3.892509 q 1.038437,0 1.639294,0.24818 0.607388,0.241649 0.960065,0.80985 0.352677,0.561671 0.352677,1.345398 0,0.724947 -0.280835,1.410708 -0.280835,0.68576 -0.692292,1.097217 -0.404925,0.411456 -0.875161,0.626981 -0.470236,0.208994 -1.267025,0.320022 -0.463705,0.06531 -1.73726,0.06531 h -1.260494 z m 1.090686,-5.237906 h 0.607388 q 1.560922,0 2.083406,-0.195932 0.522485,-0.195931 0.822913,-0.626981 0.300429,-0.43105 0.300429,-0.947003 0,-0.346146 -0.156746,-0.568202 -0.150214,-0.222056 -0.431049,-0.320021 -0.274304,-0.104497 -1.23437,-0.104497 h -1.410707 z"
       style="fill:#e61f00"
       id="path832" />
  </g>
  <text
     xml:space="preserve"
     style="font-style:normal;font-weight:normal;font-size:11.2889px;line-height:1.25;font-family:sans-serif;letter-spacing:0px;word-spacing:0px;fill:#000000;fill-opacity:1;stroke:none;stroke-width:0.264583"
     x="-2.7976763"
     y="-4.5935822"
     id="text27804"><tspan
       id="tspan27802"
       style="stroke-width:0.264583"
       x="-2.7976763"
       y="-4.5935822" /></text>
  <metadata
     id="metadata872">
    <rdf:RDF>
      <cc:Work
         rdf:about="">
        <dc:title>favicon</dc:title>
      </cc:Work>
    </rdf:RDF>
  </metadata>
</svg>
