<?xml version="1.0" encoding="UTF-8" standalone="no"?>
<!-- Created with Inkscape (http://www.inkscape.org/) -->

<svg
   width="210mm"
   height="297mm"
   viewBox="0 0 210 297"
   version="1.1"
   id="svg5"
   inkscape:version="1.1 (c68e22c387, 2021-05-23)"
   sodipodi:docname="logo.svg"
   xmlns:inkscape="http://www.inkscape.org/namespaces/inkscape"
   xmlns:sodipodi="http://sodipodi.sourceforge.net/DTD/sodipodi-0.dtd"
   xmlns:xlink="http://www.w3.org/1999/xlink"
   xmlns="http://www.w3.org/2000/svg"
   xmlns:svg="http://www.w3.org/2000/svg">
  <sodipodi:namedview
     id="namedview7"
     pagecolor="#ffffff"
     bordercolor="#999999"
     borderopacity="1"
     inkscape:pageshadow="0"
     inkscape:pageopacity="0"
     inkscape:pagecheckerboard="0"
     inkscape:document-units="mm"
     showgrid="false"
     inkscape:zoom="2.8284271"
     inkscape:cx="462.80139"
     inkscape:cy="437.6991"
     inkscape:window-width="3255"
     inkscape:window-height="1846"
     inkscape:window-x="218"
     inkscape:window-y="68"
     inkscape:window-maximized="0"
     inkscape:current-layer="layer1" />
  <defs
     id="defs2" />
  <g
     inkscape:label="Layer 1"
     inkscape:groupmode="layer"
     id="layer1">
    <rect
       style="fill:#000000;fill-opacity:1;stroke:#000000;stroke-width:3.81466;stroke-linecap:round"
       id="rect261076-1"
       width="126.34363"
       height="22.882236"
       x="43.771015"
       y="110.91719"
       rx="3.4715791"
       ry="5.1094894" />
    <g
       aria-label="EngineeringPaper.xyz"
       id="g3432"
       style="font-weight:bold;font-size:11.2889px;font-family:'Yu Gothic';-inkscape-font-specification:'Yu Gothic Bold';letter-spacing:0px;word-spacing:0px;fill:#b31700;stroke-width:0.264583"
       transform="translate(0.12801284,-5.6325645)">
      <path
         style="color:#000000;-inkscape-font-specification:'Yu Gothic Bold';fill:#800000;stroke-width:0.999999;-inkscape-stroke:none"
         sodipodi:type="inkscape:offset"
         inkscape:radius="0"
         inkscape:original="M 51.503906 120.55664 C 50.202609 120.55611 49.07923 121.46852 48.8125 122.74219 L 47.125 130.82227 C 46.768297 132.52986 48.071955 134.36949 49.816406 134.36914 L 51.517578 134.36914 C 52.03193 134.36914 52.540813 134.35938 53.09375 134.35938 L 60.570312 134.35938 C 62.223892 134.35938 62.65147 135.19124 63.236328 135.62109 C 64.316746 136.41515 65.501609 136.50781 66.640625 136.50781 C 67.146617 136.50781 67.650154 136.46792 68.152344 136.37109 C 68.709792 136.26362 69.288947 136.06572 69.833984 135.73828 C 70.689678 135.22456 71.326847 134.35938 72.861328 134.35938 L 104.48047 134.35938 C 105.8907 134.35938 106.41293 135.13345 107.14648 135.62109 C 108.25984 136.3612 109.40982 136.50781 110.54883 136.50781 C 111.05483 136.50781 111.55836 136.46792 112.06055 136.37109 C 112.61589 136.26403 113.19327 136.06727 113.74414 135.73633 C 114.63289 135.14001 115.19125 134.35938 116.77148 134.35938 L 125.47461 134.35938 C 127.70598 134.35938 127.11402 136.38756 128.33203 136.36719 L 129.91406 136.36719 C 131.12178 136.33809 131.57292 134.35938 133.55273 134.35938 L 151.00586 134.35938 C 153.42251 134.37027 152.78107 136.54112 154.17188 136.50781 C 154.72985 136.52331 155.36731 136.52867 156.33008 136.50781 C 157.90603 136.51381 158.13761 134.38727 159.91797 134.35938 C 161.47059 134.37148 161.85707 134.37109 163.4707 134.37109 C 164.80855 134.37112 165.95225 133.16994 166.17969 131.85156 L 166.40039 130.57227 L 166.82227 126.93555 L 166.90234 125.99219 C 167.18694 124.31461 165.89491 122.55903 164.19336 122.55859 L 160.59961 122.55859 C 160.59961 122.55859 159.5867 122.5625 159.03906 122.5625 L 125.27734 122.5625 C 122.7258 122.5625 122.99242 120.56571 121.45898 120.55664 L 116.93359 120.55664 C 115.71633 120.57414 115.60867 122.5625 113.06836 122.5625 L 104.92969 122.5625 C 102.56215 122.5625 102.71739 120.56436 101.37695 120.55664 L 99.794922 120.55664 C 98.404613 120.54964 99.150274 122.5625 96.660156 122.5625 L 77.947266 122.5625 C 75.414367 122.5625 75.916875 120.53955 74.394531 120.55664 L 72.8125 120.55664 C 71.29817 120.57484 71.770848 122.5625 69.148438 122.5625 L 60.517578 122.5625 C 58.745542 122.5625 58.669023 120.62245 57.494141 120.55664 L 51.503906 120.55664 z "
         xlink:href="#path3430"
         id="path9331"
         inkscape:href="#path3430"
         d="m 51.503906,120.55664 c -1.301297,-5.3e-4 -2.424676,0.91188 -2.691406,2.18555 l -1.6875,8.08008 c -0.356703,1.70759 0.946955,3.54722 2.691406,3.54687 h 1.701172 c 0.514352,0 1.023235,-0.01 1.576172,-0.01 h 9.064453 c 0.940649,0 0.493267,0.83186 1.078125,1.26171 1.080418,0.79406 2.265281,0.88672 3.404297,0.88672 0.505992,0 1.009529,-0.0399 1.511719,-0.13672 0.557448,-0.10747 1.136603,-0.30537 1.68164,-0.63281 0.855694,-0.51372 0.358995,-1.3789 1.439454,-1.3789 h 34.794922 c 0.98194,0 0.34457,0.77407 1.07812,1.26171 1.11336,0.74011 2.26334,0.88672 3.40235,0.88672 0.506,0 1.00953,-0.0399 1.51172,-0.13672 0.55534,-0.10706 1.13272,-0.30382 1.68359,-0.63476 0.88875,-0.59632 0.48311,-1.37695 1.43945,-1.37695 h 10.82032 c 1.12053,0 1.11011,2.02818 2.32812,2.00781 h 1.58203 c 1.20772,-0.0291 1.37202,-2.00781 2.58008,-2.00781 h 19.57031 c 0.79357,0 0.93897,1.54986 1.40821,1.87695 0.4739,0.33035 0.55535,0.26518 1.75781,0.27148 1.11639,0.006 1.21657,0.0716 1.80273,-0.23047 0.82574,-0.42551 1.01291,-1.91797 1.82618,-1.91796 h 0.17968 c 0.55294,0 1.57617,0.0117 1.57617,0.0117 h 2.85547 c 1.33785,3e-5 2.48155,-1.20115 2.70899,-2.51953 l 0.2207,-1.27929 0.42188,-3.63672 0.0801,-0.94336 c 0.2846,-1.67758 -1.00743,-3.43316 -2.70898,-3.4336 h -3.59375 c 0,0 -1.01291,0.004 -1.56055,0.004 h -34.29101 c -2.23734,0 -1.75563,-1.99679 -3.28907,-2.00586 h -4.52539 c -1.21726,0.0175 -1.58926,2.00586 -2.80664,2.00586 h -10.25586 c -1.17691,0 -1.1537,-1.99814 -2.49414,-2.00586 h -1.582028 c -1.390309,-0.007 -1.388658,2.00586 -2.605469,2.00586 H 76.888672 c -1.176909,0 -0.971797,-2.02295 -2.494141,-2.00586 H 72.8125 c -1.51433,0.0182 -1.388658,2.00586 -2.605469,2.00586 h -10.21875 c -1.176723,0 -1.319258,-1.94005 -2.49414,-2.00586 z" />
      <path
         style="color:#000000;-inkscape-font-specification:'Yu Gothic Bold';fill:#ffffff;fill-opacity:1;stroke-width:0.264583;-inkscape-stroke:none"
         sodipodi:type="inkscape:offset"
         inkscape:radius="0.65741873"
         inkscape:original="M 51.503906 120.04297 C 49.962393 120.04234 48.626495 121.12803 48.310547 122.63672 L 46.623047 130.7168 C 46.200024 132.74187 47.710791 134.88323 49.816406 134.88281 L 51.517578 134.88281 C 52.038428 134.88281 52.546857 134.87305 53.09375 134.87305 L 60.570312 134.87305 C 62.051628 134.87305 62.188233 135.48878 62.931641 136.03516 C 64.141092 136.92405 65.473752 137.02148 66.640625 137.02148 C 67.173613 137.02148 67.710885 136.97895 68.25 136.875 C 68.857605 136.75786 69.493245 136.54084 70.097656 136.17773 C 71.075074 135.59094 71.519918 134.87305 72.861328 134.87305 L 104.48047 134.87305 C 105.70274 134.87305 106.01268 135.48467 106.86133 136.04883 C 108.08444 136.8619 109.36574 137.02148 110.54883 137.02148 C 111.08182 137.02148 111.61909 136.97895 112.1582 136.875 C 112.76343 136.75832 113.39817 136.54203 114.00781 136.17578 A 0.51369624 0.51369624 0 0 0 114.03125 136.16211 C 114.52041 135.8339 114.87628 135.49677 115.26367 135.26367 C 115.65106 135.03057 116.06595 134.87305 116.77148 134.87305 L 125.47461 134.87305 C 125.95464 134.87305 126.21625 134.97357 126.40039 135.09961 C 126.58453 135.22565 126.71017 135.39898 126.83594 135.62305 C 126.96171 135.84711 127.07016 136.11749 127.28516 136.38477 C 127.50016 136.65204 127.89355 136.88832 128.33984 136.88086 L 129.91406 136.88086 A 0.51369624 0.51369624 0 0 0 129.92578 136.88086 C 130.36708 136.87023 130.73823 136.67235 131.0293 136.44531 C 131.32036 136.21827 131.55914 135.95815 131.80273 135.7207 C 132.28993 135.24581 132.73395 134.87305 133.55273 134.87305 L 151.00586 134.87305 C 151.53126 134.87581 151.82584 134.98688 152.03516 135.12891 C 152.24485 135.27119 152.38642 135.46454 152.5293 135.70898 C 152.67217 135.95343 152.80032 136.24661 153.04297 136.52539 C 153.28562 136.80417 153.70333 137.03299 154.18359 137.02148 C 154.74094 137.03668 155.37984 137.04179 156.32812 137.02148 C 156.83767 137.02342 157.27492 136.83721 157.60938 136.5918 C 157.94383 136.34639 158.19355 136.05336 158.42969 135.78906 C 158.90195 135.26048 159.23968 134.88379 159.92578 134.87305 C 161.46642 134.88503 161.86247 134.88477 163.4707 134.88477 C 165.11601 134.8848 166.41795 133.4906 166.68555 131.93945 L 166.90625 130.66016 A 0.51369624 0.51369624 0 0 0 166.91016 130.63086 L 167.33203 126.99414 A 0.51369624 0.51369624 0 0 0 167.33398 126.97852 L 167.41406 126.03516 L 167.4082 126.07812 C 167.74556 124.08955 166.24815 122.04545 164.19336 122.04492 L 160.59961 122.04492 A 0.51369624 0.51369624 0 0 0 160.59766 122.04492 C 160.59766 122.04492 159.58426 122.04883 159.03906 122.04883 L 125.27734 122.04883 C 124.13556 122.04883 123.78246 121.68625 123.37109 121.22266 C 123.16541 120.99086 122.96393 120.71855 122.66797 120.47656 C 122.372 120.23457 121.95781 120.0459 121.46289 120.04297 A 0.51369624 0.51369624 0 0 0 121.45898 120.04297 L 116.93359 120.04297 A 0.51369624 0.51369624 0 0 0 116.92578 120.04297 C 116.48178 120.04935 116.11069 120.25482 115.83984 120.48633 C 115.569 120.71784 115.36075 120.97397 115.13281 121.20312 C 114.67694 121.66146 114.2045 122.04883 113.06836 122.04883 L 104.92969 122.04883 C 103.89042 122.04883 103.55159 121.69178 103.16016 121.23047 C 102.96444 120.99981 102.77707 120.73248 102.50586 120.49023 C 102.23465 120.24799 101.84363 120.04563 101.38086 120.04297 A 0.51369624 0.51369624 0 0 0 101.37695 120.04297 L 99.796875 120.04297 L 99.794922 120.04297 C 99.324505 120.04124 98.9172 120.26051 98.681641 120.5293 C 98.445741 120.79847 98.330913 121.0734 98.199219 121.29492 C 98.067524 121.51645 97.939847 121.68296 97.732422 121.8125 C 97.524997 121.94204 97.213486 122.04883 96.660156 122.04883 L 77.947266 122.04883 C 76.81756 122.04883 76.549916 121.70282 76.201172 121.24219 C 76.0268 121.01187 75.858808 120.73511 75.580078 120.48242 C 75.302515 120.23079 74.885845 120.03909 74.394531 120.04297 L 72.8125 120.04297 A 0.51369624 0.51369624 0 0 0 72.806641 120.04297 C 72.315396 120.04887 71.904617 120.24587 71.626953 120.49609 C 71.349289 120.74632 71.175265 121.01944 70.994141 121.24609 C 70.631891 121.69939 70.329869 122.04883 69.148438 122.04883 L 60.517578 122.04883 C 59.819009 122.04883 59.551531 121.73344 59.185547 121.26758 C 59.002555 121.03465 58.82112 120.7688 58.568359 120.52734 C 58.315598 120.28588 57.957546 120.06728 57.523438 120.04297 A 0.51369624 0.51369624 0 0 0 57.494141 120.04297 L 51.503906 120.04297 z "
         xlink:href="#path13861"
         id="path20373"
         inkscape:href="#path13861"
         d="m 51.503906,119.38477 c -1.850349,-7.6e-4 -3.456755,1.30654 -3.835937,3.11718 l -1.6875,8.08008 c -0.506055,2.42255 1.28454,4.95949 3.835937,4.95899 h 1.701172 c 0.529063,0 1.037101,-0.01 1.576172,-0.01 h 8.005859 c 0.309555,0 0.317338,0.0259 0.533203,0.20313 0.17378,0.1427 0.451768,0.49317 0.910157,0.83007 1.376672,1.01179 2.894188,1.11524 4.097656,1.11524 0.567961,0 1.148262,-0.0452 1.734375,-0.15821 0.672122,-0.12957 1.380842,-0.37095 2.060547,-0.77929 0.576435,-0.34606 0.973114,-0.74149 1.248047,-0.94531 0.296769,-0.22002 0.376353,-0.26563 0.648437,-0.26563 h 32.677739 c 0.41844,0 0.28828,-0.0217 0.48437,0.15234 0.12129,0.10767 0.44308,0.53929 1.00391,0.91211 1.36636,0.9083 2.80857,1.08399 4.05078,1.08399 0.56796,0 1.14826,-0.0452 1.73437,-0.15821 0.6683,-0.12883 1.37547,-0.36962 2.0586,-0.77929 0.012,-0.007 0.0234,-0.0142 0.0351,-0.0215 a 0.65748447,0.65748447 0 0 0 0.0215,-0.0117 c 0.59236,-0.39744 0.95087,-0.81683 1.13867,-0.96484 0.23993,-0.1891 0.21655,-0.21289 0.70508,-0.21289 h 9.23242 c 0.1422,0 0.0834,-0.0179 0.19141,0.0664 0.0771,0.0601 0.23361,0.23576 0.40625,0.46875 0.16954,0.22882 0.38322,0.5568 0.72461,0.86523 0.36611,0.33076 0.90303,0.61832 1.55468,0.60742 h 1.5625 c 0.006,3e-5 0.0132,8e-5 0.0195,0 a 0.65748447,0.65748447 0 0 0 0.008,0 c 0.62927,-0.0152 1.13842,-0.29641 1.5,-0.58984 0.34867,-0.28294 0.59937,-0.58532 0.80664,-0.81836 0.211,-0.23724 0.37859,-0.41057 0.5,-0.49805 0.12141,-0.0875 0.16982,-0.10156 0.27539,-0.10156 h 18.48633 c 0.12302,-0.002 0.0108,-0.0494 0.0898,0.0273 0.0287,0.0278 0.15901,0.2123 0.29297,0.46094 0.1331,0.24704 0.31332,0.62677 0.66015,0.98633 0.38591,0.40005 0.96531,0.6882 1.64649,0.67187 0.5569,0.0148 1.19573,0.0216 2.12695,0.002 0.66825,0.003 1.24491,-0.24202 1.66992,-0.57422 0.40638,-0.31764 0.67104,-0.681 0.8711,-0.95117 0.19848,-0.26803 0.37005,-0.48266 0.45508,-0.5586 0.11417,-0.10197 0.0342,-0.0633 0.11328,-0.0644 1.51774,0.0116 2.444,0.0117 4.03515,0.0117 2.01671,4e-5 3.54617,-1.65404 3.86328,-3.49219 l 0.22071,-1.2793 a 0.65748447,0.65748447 0 0 0 0,-0.006 c 0.003,-0.0195 0.006,-0.0389 0.008,-0.0586 l 0.002,-0.008 0.41797,-3.61328 v -0.002 l 0.002,-0.0137 c 8.3e-4,-0.007 0.003,-0.0129 0.004,-0.0195 a 0.65748447,0.65748447 0 0 0 0,-0.0176 l 0.0801,-0.94336 a 0.65748447,0.65748447 0 0 0 -0.0176,-0.0391 c 0.31278,-2.33246 -1.41529,-4.66343 -3.85742,-4.66406 h -3.5918 c -0.001,0 -0.004,0 -0.006,0 0,0 -1.01458,0.004 -1.55664,0.004 h -34.29101 c -0.41164,0 -0.54989,-0.0585 -0.625,-0.10742 -0.0751,-0.0489 -0.15585,-0.15251 -0.32422,-0.39258 -0.13994,-0.19951 -0.34016,-0.5477 -0.70117,-0.8789 -0.39624,-0.36351 -0.96573,-0.62302 -1.63086,-0.62695 a 0.65748447,0.65748447 0 0 0 -0.002,0 c -0.002,-1e-5 -0.004,-1e-5 -0.006,0 h -4.51953 c -0.006,-5e-5 -0.0136,-5e-5 -0.0195,0 a 0.65748447,0.65748447 0 0 0 -0.004,0 c -0.63348,0.009 -1.14578,0.28931 -1.50782,0.58398 -0.34629,0.28183 -0.59123,0.58023 -0.79687,0.80273 -0.43088,0.46622 -0.54921,0.61915 -1.01367,0.61914 h -9.19727 c -0.34649,0 -0.43729,-0.0485 -0.49609,-0.0898 -0.0588,-0.0414 -0.14396,-0.15052 -0.30274,-0.38867 -0.13258,-0.19885 -0.31441,-0.53292 -0.64258,-0.86328 -0.36681,-0.36928 -0.91434,-0.66027 -1.57421,-0.66406 a 0.65748447,0.65748447 0 0 0 -0.002,0 c -0.002,-1e-5 -0.004,-1e-5 -0.006,0 h -1.580075 -0.002 c -0.6558,-0.002 -1.208401,0.26854 -1.589844,0.62304 -0.347584,0.32306 -0.549039,0.65954 -0.697266,0.86719 -0.171996,0.24095 -0.271149,0.36417 -0.345703,0.41602 -0.07455,0.0518 -0.168309,0.0996 -0.501953,0.0996 H 77.417969 c -0.290665,0 -0.281486,-0.0188 -0.369141,-0.084 -0.05496,-0.0409 -0.164906,-0.16827 -0.308594,-0.39062 -0.140214,-0.21698 -0.342101,-0.5787 -0.710937,-0.91602 -0.401409,-0.36716 -0.97431,-0.61891 -1.634766,-0.61523 h -1.578125 c -0.0045,-3e-5 -0.0092,-3e-5 -0.01367,0 a 0.65748447,0.65748447 0 0 0 -0.0039,0 c -0.658314,0.008 -1.221463,0.26423 -1.61914,0.61914 -0.366829,0.32737 -0.577403,0.67744 -0.726563,0.89062 -0.153921,0.21999 -0.268329,0.34523 -0.341797,0.39649 -0.09909,0.0691 -0.127884,0.0996 -0.433594,0.0996 h -9.160156 c -0.250347,0 -0.326654,-0.0357 -0.419922,-0.0996 -0.09327,-0.064 -0.21508,-0.20127 -0.394531,-0.42969 -0.163284,-0.20785 -0.36627,-0.50919 -0.679687,-0.8086 -0.333686,-0.31876 -0.829265,-0.63053 -1.462891,-0.66601 a 0.65748447,0.65748447 0 0 0 -0.01758,0 c -0.02226,-6.4e-4 -0.0461,-6.4e-4 -0.06836,0 l 0.01953,-0.002 z" />
      <path
         style="color:#000000;-inkscape-font-specification:'Yu Gothic Bold';fill:#b31700;fill-opacity:1;stroke-width:0.264583;-inkscape-stroke:none"
         sodipodi:type="inkscape:offset"
         inkscape:radius="0.51364487"
         inkscape:original="M 51.503906 120.55664 C 50.202609 120.55611 49.07923 121.46852 48.8125 122.74219 L 47.125 130.82227 C 46.768297 132.52986 48.071955 134.36949 49.816406 134.36914 L 51.517578 134.36914 C 52.03193 134.36914 52.540813 134.35938 53.09375 134.35938 L 60.570312 134.35938 C 62.223892 134.35938 62.65147 135.19124 63.236328 135.62109 C 64.316746 136.41515 65.501609 136.50781 66.640625 136.50781 C 67.146617 136.50781 67.650154 136.46792 68.152344 136.37109 C 68.709792 136.26362 69.288947 136.06572 69.833984 135.73828 C 70.689678 135.22456 71.326847 134.35938 72.861328 134.35938 L 104.48047 134.35938 C 105.8907 134.35938 106.41293 135.13345 107.14648 135.62109 C 108.25984 136.3612 109.40982 136.50781 110.54883 136.50781 C 111.05483 136.50781 111.55836 136.46792 112.06055 136.37109 C 112.61589 136.26403 113.19327 136.06727 113.74414 135.73633 C 114.63289 135.14001 115.19125 134.35938 116.77148 134.35938 L 125.47461 134.35938 C 127.70598 134.35938 127.11402 136.38756 128.33203 136.36719 L 129.91406 136.36719 C 131.12178 136.33809 131.57292 134.35938 133.55273 134.35938 L 151.00586 134.35938 C 153.42251 134.37027 152.78107 136.54112 154.17188 136.50781 C 154.72985 136.52331 155.36731 136.52867 156.33008 136.50781 C 157.90603 136.51381 158.13761 134.38727 159.91797 134.35938 C 161.47059 134.37148 161.85707 134.37109 163.4707 134.37109 C 164.80855 134.37112 165.95225 133.16994 166.17969 131.85156 L 166.40039 130.57227 L 166.82227 126.93555 L 166.90234 125.99219 C 167.18694 124.31461 165.89491 122.55903 164.19336 122.55859 L 160.59961 122.55859 C 160.59961 122.55859 159.5867 122.5625 159.03906 122.5625 L 125.27734 122.5625 C 122.7258 122.5625 122.99242 120.56571 121.45898 120.55664 L 116.93359 120.55664 C 115.71633 120.57414 115.60867 122.5625 113.06836 122.5625 L 104.92969 122.5625 C 102.56215 122.5625 102.71739 120.56436 101.37695 120.55664 L 99.794922 120.55664 C 98.404613 120.54964 99.150274 122.5625 96.660156 122.5625 L 77.947266 122.5625 C 75.414367 122.5625 75.916875 120.53955 74.394531 120.55664 L 72.8125 120.55664 C 71.29817 120.57484 71.770848 122.5625 69.148438 122.5625 L 60.517578 122.5625 C 58.745542 122.5625 58.669023 120.62245 57.494141 120.55664 L 51.503906 120.55664 z "
         xlink:href="#path3430"
         id="path13861"
         inkscape:href="#path3430"
         d="m 51.503906,120.04297 c -1.541513,-6.3e-4 -2.877411,1.08506 -3.193359,2.59375 l -1.6875,8.08008 c -0.423023,2.02507 1.087744,4.16643 3.193359,4.16601 h 1.701172 c 0.52085,0 1.029279,-0.01 1.576172,-0.01 h 8.005859 c 0.444507,0 0.687349,0.13687 0.951172,0.35351 0.263823,0.21665 0.507489,0.53418 0.88086,0.8086 1.209451,0.88889 2.542111,0.98632 3.708984,0.98632 0.532988,0 1.07026,-0.0425 1.609375,-0.14648 0.607605,-0.11714 1.243245,-0.33416 1.847656,-0.69727 0.496911,-0.29832 0.858291,-0.65834 1.195313,-0.9082 0.337021,-0.24986 0.615326,-0.39648 1.039062,-0.39648 h 32.677739 c 0.51693,0 0.69214,0.11616 0.91992,0.31836 0.22777,0.20219 0.47455,0.55356 0.93164,0.85742 1.22311,0.81307 2.50441,0.97265 3.6875,0.97265 0.53299,0 1.07026,-0.0425 1.60937,-0.14648 0.60523,-0.11668 1.23997,-0.33297 1.84961,-0.69922 a 0.51369624,0.51369624 0 0 0 0.0234,-0.0137 c 0.51276,-0.34404 0.81652,-0.71048 1.09961,-0.93359 0.28309,-0.22312 0.52403,-0.35547 1.11133,-0.35547 h 9.23242 c 0.26134,0 0.42138,0.071 0.5957,0.20703 0.17432,0.13598 0.34685,0.34947 0.5293,0.5957 0.18245,0.24624 0.37004,0.52488 0.63867,0.76758 0.26864,0.2427 0.65441,0.44498 1.10156,0.4375 h 1.57422 a 0.51369624,0.51369624 0 0 0 0.0117,0 c 0.44132,-0.0106 0.81525,-0.20906 1.10156,-0.44141 0.28632,-0.23234 0.51143,-0.50201 0.72852,-0.74609 0.43418,-0.48816 0.76613,-0.82031 1.26758,-0.82031 h 18.49804 c 0.27664,0.008 0.39715,0.0789 0.53516,0.21289 0.13801,0.13397 0.2718,0.35704 0.41406,0.62109 0.14227,0.26405 0.29158,0.56904 0.55469,0.8418 0.26311,0.27275 0.67951,0.48412 1.1582,0.47265 0.55735,0.0152 1.19624,0.0203 2.14453,0 0.50773,0.002 0.94226,-0.18236 1.26368,-0.43359 0.32142,-0.25123 0.54627,-0.55437 0.74609,-0.82422 0.19982,-0.26984 0.37761,-0.50703 0.54688,-0.6582 0.16926,-0.15117 0.30281,-0.22273 0.52539,-0.23242 1.53681,0.0119 2.45702,0.0117 4.06054,0.0117 1.64531,3e-5 2.94725,-1.39417 3.21485,-2.94532 l 0.2207,-1.27929 a 0.51369624,0.51369624 0 0 0 0.004,-0.0293 l 0.42187,-3.63672 a 0.51369624,0.51369624 0 0 0 0.002,-0.0156 l 0.0801,-0.94336 -0.006,0.043 c 0.33736,-1.98858 -1.16005,-4.03267 -3.21484,-4.0332 h -3.59375 a 0.51369624,0.51369624 0 0 0 -0.002,0 c 0,0 -1.0134,0.004 -1.5586,0.004 h -34.29101 c -0.96587,0 -1.16075,-0.31426 -1.48828,-0.78125 -0.16377,-0.2335 -0.32886,-0.51592 -0.60743,-0.77149 -0.27857,-0.25556 -0.69446,-0.45019 -1.18945,-0.45312 a 0.51369624,0.51369624 0 0 0 -0.004,0 h -4.52539 a 0.51369624,0.51369624 0 0 0 -0.008,0 c -0.44375,0.006 -0.81893,0.20393 -1.10351,0.43555 -0.28459,0.23161 -0.50662,0.49818 -0.72852,0.73828 -0.4438,0.48019 -0.80764,0.83203 -1.49609,0.83203 h -9.19727 c -0.85044,0 -1.03504,-0.30554 -1.3457,-0.77149 -0.15533,-0.23297 -0.30847,-0.50989 -0.5625,-0.76562 -0.25403,-0.25574 -0.64849,-0.46609 -1.11133,-0.46875 a 0.51369624,0.51369624 0 0 0 -0.004,0 h -1.580075 -0.002 c -0.470553,-0.002 -0.872807,0.19654 -1.142578,0.44726 -0.270163,0.2511 -0.440172,0.53055 -0.609375,0.76758 -0.338406,0.47408 -0.548943,0.79102 -1.382813,0.79102 H 77.417969 c -0.390114,0 -0.59192,-0.0885 -0.761719,-0.21485 -0.169799,-0.12632 -0.31234,-0.3185 -0.46875,-0.56054 -0.15641,-0.24204 -0.320335,-0.53185 -0.601562,-0.78906 -0.28005,-0.25615 -0.700024,-0.44531 -1.191407,-0.44141 H 72.8125 a 0.51369624,0.51369624 0 0 0 -0.0059,0 c -0.491155,0.006 -0.906053,0.19825 -1.189453,0.45117 -0.283401,0.25292 -0.45794,0.53858 -0.625,0.77734 -0.167061,0.23877 -0.319343,0.42983 -0.503907,0.5586 -0.184564,0.12876 -0.407082,0.21875 -0.810547,0.21875 h -9.160156 c -0.698569,0 -0.966047,-0.31539 -1.332031,-0.78125 -0.182992,-0.23293 -0.364427,-0.49878 -0.617188,-0.74024 -0.252761,-0.24146 -0.610813,-0.46006 -1.044921,-0.48437 a 0.51369624,0.51369624 0 0 0 -0.0293,0 z" />
      <path
         id="path3430"
         style="color:#000000;-inkscape-font-specification:'Yu Gothic Bold';fill:#000000;stroke-width:0.264583;-inkscape-stroke:none"
         d="m 51.503833,120.55698 c -1.301297,-5.3e-4 -2.42458,0.91173 -2.69131,2.1854 l -1.68775,8.08013 c -0.356703,1.70759 0.946856,3.54659 2.691307,3.54624 h 1.702221 c 0.514352,0 1.022678,-0.009 1.575615,-0.009 h 7.476029 c 1.65358,0 2.081647,0.83054 2.666505,1.26039 1.080418,0.79406 2.26491,0.88832 3.403926,0.88832 0.505992,0 1.009861,-0.0396 1.512051,-0.13643 0.557448,-0.10747 1.136515,-0.30715 1.681552,-0.63459 0.855694,-0.51372 1.493241,-1.37769 3.027722,-1.37769 h 31.618229 c 1.41023,0 1.93295,0.77275 2.6665,1.26039 1.11336,0.74011 2.26337,0.88832 3.40238,0.88832 0.506,0 1.00934,-0.0396 1.51153,-0.13643 0.55534,-0.10706 1.13275,-0.30416 1.68362,-0.6351 0.88875,-0.59632 1.44749,-1.37718 3.02772,-1.37718 h 8.70231 c 2.23137,0 1.64022,2.02697 2.85823,2.0066 h 1.58181 c 1.20772,-0.0291 1.65925,-2.0066 3.63906,-2.0066 h 17.45216 c 2.41665,0.0109 1.77593,2.18202 3.16674,2.14871 0.55798,0.0155 1.19563,0.0206 2.1584,-2.6e-4 1.57595,0.006 1.80714,-2.12056 3.5875,-2.14845 1.55262,0.0121 1.93912,0.0118 3.55275,0.0118 1.33785,3e-5 2.48144,-1.20075 2.70888,-2.51913 l 0.22066,-1.2795 0.4213,-3.63647 0.081,-0.94361 c 0.2846,-1.67758 -1.00784,-3.43445 -2.70939,-3.43489 h -3.59255 c 0,0 -1.01402,0.005 -1.56166,0.005 H 125.2767 c -2.55154,0 -2.28523,-1.99649 -3.81867,-2.00556 h -4.52476 c -1.21726,0.0175 -1.32389,2.00556 -3.8642,2.00556 h -8.13954 c -2.36754,0 -2.21232,-1.99784 -3.55276,-2.00556 h -1.582336 c -1.390309,-0.007 -0.644576,2.00556 -3.134694,2.00556 H 77.947191 c -2.532899,0 -2.030413,-2.02265 -3.552757,-2.00556 h -1.582332 c -1.51433,0.0182 -1.041448,2.00556 -3.663859,2.00556 h -8.631524 c -1.772036,0 -1.848189,-1.93975 -3.023071,-2.00556 z"
         sodipodi:nodetypes="ccccsssssscssssscssccscccccccccccssccssccsscccccc" />
    </g>
    <rect
       style="fill:#000000;fill-opacity:1;stroke:#000000;stroke-width:3;stroke-linecap:round"
       id="rect261076"
       width="120.5437"
       height="14.83335"
       x="46.655273"
       y="75.310547"
       rx="3.3122129"
       ry="3.3122132" />
    <text
       xml:space="preserve"
       style="font-style:normal;font-variant:normal;font-weight:bold;font-stretch:normal;font-size:11.2889px;line-height:1.25;font-family:'Yu Gothic';-inkscape-font-specification:'Yu Gothic Bold';letter-spacing:0px;word-spacing:0px;fill:#b31700;fill-opacity:1;stroke:none;stroke-width:0.264583"
       x="46.213692"
       y="63.466805"
       id="text2058"><tspan
         sodipodi:role="line"
         id="tspan2056"
         style="font-style:normal;font-variant:normal;font-weight:bold;font-stretch:normal;font-family:'Yu Gothic';-inkscape-font-specification:'Yu Gothic Bold';fill:#b31700;fill-opacity:1;stroke-width:0.264583"
         x="46.213692"
         y="63.466805"><tspan
           style="font-style:italic;font-variant:normal;font-weight:bold;font-stretch:normal;font-family:Arial;-inkscape-font-specification:'Arial Bold Italic'"
           id="tspan243119">E</tspan><tspan
           style="font-style:italic;font-variant:normal;font-weight:bold;font-stretch:normal;font-family:Arial;-inkscape-font-specification:'Arial Bold Italic';fill:#000000"
           id="tspan235380">ngineering</tspan><tspan
           style="font-style:italic;font-variant:normal;font-weight:bold;font-stretch:normal;font-family:Arial;-inkscape-font-specification:'Arial Bold Italic'"
           id="tspan243121">P</tspan><tspan
           style="font-style:italic;font-variant:normal;font-weight:bold;font-stretch:normal;font-family:Arial;-inkscape-font-specification:'Arial Bold Italic';fill:#000000"
           id="tspan236930">aper</tspan><tspan
           style="font-style:italic;font-variant:normal;font-weight:bold;font-stretch:normal;font-family:Arial;-inkscape-font-specification:'Arial Bold Italic'"
           id="tspan256216">.</tspan><tspan
           style="font-style:italic;font-variant:normal;font-weight:bold;font-stretch:condensed;font-size:11.2889px;font-family:Arial;-inkscape-font-specification:'Arial Bold Italic Condensed';fill:#b31700;fill-opacity:1"
           id="tspan9082">xyz<tspan
   style="fill:#000000"
   id="tspan241244" /></tspan></tspan></text>
    <text
       xml:space="preserve"
       style="font-style:normal;font-variant:normal;font-weight:bold;font-stretch:normal;font-size:11.2889px;line-height:1.25;font-family:'Yu Gothic';-inkscape-font-specification:'Yu Gothic Bold';letter-spacing:0px;word-spacing:0px;fill:#b31700;fill-opacity:1;stroke:none;stroke-width:0.264583"
       x="49.369003"
       y="86.296021"
       id="text2058-2"><tspan
         sodipodi:role="line"
         id="tspan2056-5"
         style="font-style:normal;font-variant:normal;font-weight:bold;font-stretch:normal;font-family:'Yu Gothic';-inkscape-font-specification:'Yu Gothic Bold';fill:#b31700;fill-opacity:1;stroke-width:0.264583"
         x="49.369003"
         y="86.296021"><tspan
           style="font-style:italic;font-variant:normal;font-weight:bold;font-stretch:normal;font-family:Arial;-inkscape-font-specification:'Arial Bold Italic';fill:#ffffff;fill-opacity:1"
           id="tspan243119-9"><tspan
   style="fill:#b31700;fill-opacity:1"
   id="tspan269378">E</tspan>ngineering<tspan
   style="fill:#b31700;fill-opacity:1"
   id="tspan270244">P</tspan>aper</tspan><tspan
           style="font-style:italic;font-variant:normal;font-weight:bold;font-stretch:normal;font-family:Arial;-inkscape-font-specification:'Arial Bold Italic'"
           id="tspan256216-2">.</tspan><tspan
           style="font-style:italic;font-variant:normal;font-weight:bold;font-stretch:condensed;font-size:11.2889px;font-family:Arial;-inkscape-font-specification:'Arial Bold Italic Condensed';fill:#b31700;fill-opacity:1"
           id="tspan9082-1">xyz</tspan></tspan></text>
    <text
       xml:space="preserve"
       style="font-style:normal;font-variant:normal;font-weight:bold;font-stretch:normal;font-size:11.2889px;line-height:1.25;font-family:'Yu Gothic';-inkscape-font-specification:'Yu Gothic Bold';letter-spacing:0px;word-spacing:0px;fill:#b31700;fill-opacity:1;stroke:none;stroke-width:0.264583"
       x="49.490143"
       y="125.98845"
       id="text2058-2-5"><tspan
         sodipodi:role="line"
         id="tspan2056-5-1"
         style="font-style:normal;font-variant:normal;font-weight:bold;font-stretch:normal;font-family:'Yu Gothic';-inkscape-font-specification:'Yu Gothic Bold';fill:#b31700;fill-opacity:1;stroke-width:0.264583"
         x="49.490143"
         y="125.98845"><tspan
           style="font-style:italic;font-variant:normal;font-weight:bold;font-stretch:normal;font-family:Arial;-inkscape-font-specification:'Arial Bold Italic';fill:#ffffff;fill-opacity:1"
           id="tspan243119-9-1"><tspan
   style="fill:#b31700;fill-opacity:1"
   id="tspan269378-2">E</tspan>ngineering<tspan
   style="fill:#b31700;fill-opacity:1"
   id="tspan270244-3">P</tspan>aper</tspan><tspan
           style="font-style:italic;font-variant:normal;font-weight:bold;font-stretch:normal;font-family:Arial;-inkscape-font-specification:'Arial Bold Italic'"
           id="tspan256216-2-2">.</tspan><tspan
           style="font-style:italic;font-variant:normal;font-weight:bold;font-stretch:condensed;font-size:11.2889px;font-family:Arial;-inkscape-font-specification:'Arial Bold Italic Condensed';fill:#b31700;fill-opacity:1"
           id="tspan9082-1-9">xyz</tspan></tspan></text>
    <text
       xml:space="preserve"
       style="font-style:normal;font-weight:normal;font-size:11.2889px;line-height:1.25;font-family:sans-serif;letter-spacing:0px;word-spacing:0px;fill:#000000;fill-opacity:1;stroke:none;stroke-width:0.264583"
       x="72.353722"
       y="80.493523"
       id="text27804"><tspan
         sodipodi:role="line"
         id="tspan27802"
         style="stroke-width:0.264583" /></text>
  </g>
</svg>
