<?xml version="1.0" encoding="UTF-8" standalone="no"?>
<!-- Created with Inkscape (http://www.inkscape.org/) -->

<svg
   width="5.3494749in"
   height="1.1097316in"
   viewBox="0 0 135.87667 28.187181"
   version="1.1"
   id="svg5"
   inkscape:version="1.1 (c68e22c387, 2021-05-23)"
   sodipodi:docname="logo_sticker.svg"
   inkscape:export-filename="C:\Users\micha\Downloads\logo_sticker.png"
   inkscape:export-xdpi="300"
   inkscape:export-ydpi="300"
   xmlns:inkscape="http://www.inkscape.org/namespaces/inkscape"
   xmlns:sodipodi="http://sodipodi.sourceforge.net/DTD/sodipodi-0.dtd"
   xmlns:xlink="http://www.w3.org/1999/xlink"
   xmlns="http://www.w3.org/2000/svg"
   xmlns:svg="http://www.w3.org/2000/svg">
  <sodipodi:namedview
     id="namedview7"
     pagecolor="#ffffff"
     bordercolor="#999999"
     borderopacity="1"
     inkscape:pageshadow="0"
     inkscape:pageopacity="0"
     inkscape:pagecheckerboard="0"
     inkscape:document-units="mm"
     showgrid="false"
     inkscape:zoom="0.58430975"
     inkscape:cx="214.78334"
     inkscape:cy="85.571052"
     inkscape:window-width="1280"
     inkscape:window-height="668"
     inkscape:window-x="-6"
     inkscape:window-y="-6"
     inkscape:window-maximized="1"
     inkscape:current-layer="layer1"
     fit-margin-top="0"
     fit-margin-left="0"
     fit-margin-right="0"
     fit-margin-bottom="0"
     units="in" />
  <defs
     id="defs2" />
  <g
     inkscape:label="Layer 1"
     inkscape:groupmode="layer"
     id="layer1"
     transform="translate(-39.818096,-108.99309)">
    <rect
       style="fill:#515151;fill-opacity:1;stroke:none;stroke-width:3;stroke-linecap:round"
       id="rect897"
       width="135.87666"
       height="45.303097"
       x="39.818096"
       y="100.48109"
       rx="0"
       ry="0"
       inkscape:export-filename="C:\Users\micha\Downloads\logo_sticker.png"
       inkscape:export-xdpi="300"
       inkscape:export-ydpi="300" />
    <g
       id="g1016"
       transform="translate(0.63740718,0.22691777)"
       inkscape:export-filename="C:\Users\micha\Downloads\logo_sticker.png"
       inkscape:export-xdpi="300"
       inkscape:export-ydpi="300">
      <g
         aria-label="EngineeringPaper.xyz"
         id="g3432"
         style="font-weight:bold;font-size:11.2889px;font-family:'Yu Gothic';-inkscape-font-specification:'Yu Gothic Bold';letter-spacing:0px;word-spacing:0px;fill:#b31700;stroke-width:0.264583"
         transform="translate(0.12801284,-5.6325645)">
        <path
           style="color:#000000;-inkscape-font-specification:'Yu Gothic Bold';fill:#800000;stroke-width:0.999999;-inkscape-stroke:none"
           sodipodi:type="inkscape:offset"
           inkscape:radius="0"
           inkscape:original="M 51.503906 120.55664 C 50.202609 120.55611 49.07923 121.46852 48.8125 122.74219 L 47.125 130.82227 C 46.768297 132.52986 48.071955 134.36949 49.816406 134.36914 L 51.517578 134.36914 C 52.03193 134.36914 52.540813 134.35938 53.09375 134.35938 L 60.570312 134.35938 C 62.223892 134.35938 62.65147 135.19124 63.236328 135.62109 C 64.316746 136.41515 65.501609 136.50781 66.640625 136.50781 C 67.146617 136.50781 67.650154 136.46792 68.152344 136.37109 C 68.709792 136.26362 69.288947 136.06572 69.833984 135.73828 C 70.689678 135.22456 71.326847 134.35938 72.861328 134.35938 L 104.48047 134.35938 C 105.8907 134.35938 106.41293 135.13345 107.14648 135.62109 C 108.25984 136.3612 109.40982 136.50781 110.54883 136.50781 C 111.05483 136.50781 111.55836 136.46792 112.06055 136.37109 C 112.61589 136.26403 113.19327 136.06727 113.74414 135.73633 C 114.63289 135.14001 115.19125 134.35938 116.77148 134.35938 L 125.47461 134.35938 C 127.70598 134.35938 127.11402 136.38756 128.33203 136.36719 L 129.91406 136.36719 C 131.12178 136.33809 131.57292 134.35938 133.55273 134.35938 L 151.00586 134.35938 C 153.42251 134.37027 152.78107 136.54112 154.17188 136.50781 C 154.72985 136.52331 155.36731 136.52867 156.33008 136.50781 C 157.90603 136.51381 158.13761 134.38727 159.91797 134.35938 C 161.47059 134.37148 161.85707 134.37109 163.4707 134.37109 C 164.80855 134.37112 165.95225 133.16994 166.17969 131.85156 L 166.40039 130.57227 L 166.82227 126.93555 L 166.90234 125.99219 C 167.18694 124.31461 165.89491 122.55903 164.19336 122.55859 L 160.59961 122.55859 C 160.59961 122.55859 159.5867 122.5625 159.03906 122.5625 L 125.27734 122.5625 C 122.7258 122.5625 122.99242 120.56571 121.45898 120.55664 L 116.93359 120.55664 C 115.71633 120.57414 115.60867 122.5625 113.06836 122.5625 L 104.92969 122.5625 C 102.56215 122.5625 102.71739 120.56436 101.37695 120.55664 L 99.794922 120.55664 C 98.404613 120.54964 99.150274 122.5625 96.660156 122.5625 L 77.947266 122.5625 C 75.414367 122.5625 75.916875 120.53955 74.394531 120.55664 L 72.8125 120.55664 C 71.29817 120.57484 71.770848 122.5625 69.148438 122.5625 L 60.517578 122.5625 C 58.745542 122.5625 58.669023 120.62245 57.494141 120.55664 L 51.503906 120.55664 z "
           xlink:href="#path3430"
           id="path9331"
           inkscape:href="#path3430"
           d="m 51.503906,120.55664 c -1.301297,-5.3e-4 -2.424676,0.91188 -2.691406,2.18555 l -1.6875,8.08008 c -0.356703,1.70759 0.946955,3.54722 2.691406,3.54687 h 1.701172 c 0.514352,0 1.023235,-0.01 1.576172,-0.01 h 7.476562 c 1.65358,0 2.081158,0.83186 2.666016,1.26171 1.080418,0.79406 2.265281,0.88672 3.404297,0.88672 0.505992,0 1.009529,-0.0399 1.511719,-0.13672 0.557448,-0.10747 1.136603,-0.30537 1.68164,-0.63281 0.855694,-0.51372 1.492863,-1.3789 3.027344,-1.3789 h 31.619142 c 1.41023,0 1.93246,0.77407 2.66601,1.26171 1.11336,0.74011 2.26334,0.88672 3.40235,0.88672 0.506,0 1.00953,-0.0399 1.51172,-0.13672 0.55534,-0.10706 1.13272,-0.30382 1.68359,-0.63476 0.88875,-0.59632 1.44711,-1.37695 3.02734,-1.37695 h 8.70313 c 2.23137,0 1.63941,2.02818 2.85742,2.00781 h 1.58203 c 1.20772,-0.0291 1.65886,-2.00781 3.63867,-2.00781 h 17.45313 c 2.41665,0.0109 1.77521,2.18174 3.16602,2.14843 0.55797,0.0155 1.19543,0.0209 2.1582,0 1.57595,0.006 1.80753,-2.12054 3.58789,-2.14843 1.55262,0.0121 1.9391,0.0117 3.55273,0.0117 1.33785,3e-5 2.48155,-1.20115 2.70899,-2.51953 l 0.2207,-1.27929 0.42188,-3.63672 0.0801,-0.94336 c 0.2846,-1.67758 -1.00743,-3.43316 -2.70898,-3.4336 h -3.59375 c 0,0 -1.01291,0.004 -1.56055,0.004 h -33.76172 c -2.55154,0 -2.28492,-1.99679 -3.81836,-2.00586 h -4.52539 c -1.21726,0.0175 -1.32492,2.00586 -3.86523,2.00586 h -8.13867 c -2.36754,0 -2.2123,-1.99814 -3.55274,-2.00586 h -1.582028 c -1.390309,-0.007 -0.644648,2.00586 -3.134766,2.00586 h -18.71289 c -2.532899,0 -2.030391,-2.02295 -3.552735,-2.00586 H 72.8125 c -1.51433,0.0182 -1.041652,2.00586 -3.664062,2.00586 h -8.63086 c -1.772036,0 -1.848555,-1.94005 -3.023437,-2.00586 z" />
        <path
           style="color:#000000;-inkscape-font-specification:'Yu Gothic Bold';fill:#ffffff;fill-opacity:1;stroke-width:0.264583;-inkscape-stroke:none"
           sodipodi:type="inkscape:offset"
           inkscape:radius="0.65741873"
           inkscape:original="M 51.503906 120.04297 C 49.962393 120.04234 48.626495 121.12803 48.310547 122.63672 L 46.623047 130.7168 C 46.200024 132.74187 47.710791 134.88323 49.816406 134.88281 L 51.517578 134.88281 C 52.038428 134.88281 52.546857 134.87305 53.09375 134.87305 L 60.570312 134.87305 C 62.051628 134.87305 62.188233 135.48878 62.931641 136.03516 C 64.141092 136.92405 65.473752 137.02148 66.640625 137.02148 C 67.173613 137.02148 67.710885 136.97895 68.25 136.875 C 68.857605 136.75786 69.493245 136.54084 70.097656 136.17773 C 71.075074 135.59094 71.519918 134.87305 72.861328 134.87305 L 104.48047 134.87305 C 105.70274 134.87305 106.01268 135.48467 106.86133 136.04883 C 108.08444 136.8619 109.36574 137.02148 110.54883 137.02148 C 111.08182 137.02148 111.61909 136.97895 112.1582 136.875 C 112.76343 136.75832 113.39817 136.54203 114.00781 136.17578 A 0.51369624 0.51369624 0 0 0 114.03125 136.16211 C 114.52041 135.8339 114.87628 135.49677 115.26367 135.26367 C 115.65106 135.03057 116.06595 134.87305 116.77148 134.87305 L 125.47461 134.87305 C 125.95464 134.87305 126.21625 134.97357 126.40039 135.09961 C 126.58453 135.22565 126.71017 135.39898 126.83594 135.62305 C 126.96171 135.84711 127.07016 136.11749 127.28516 136.38477 C 127.50016 136.65204 127.89355 136.88832 128.33984 136.88086 L 129.91406 136.88086 A 0.51369624 0.51369624 0 0 0 129.92578 136.88086 C 130.36708 136.87023 130.73823 136.67235 131.0293 136.44531 C 131.32036 136.21827 131.55914 135.95815 131.80273 135.7207 C 132.28993 135.24581 132.73395 134.87305 133.55273 134.87305 L 151.00586 134.87305 C 151.53126 134.87581 151.82584 134.98688 152.03516 135.12891 C 152.24485 135.27119 152.38642 135.46454 152.5293 135.70898 C 152.67217 135.95343 152.80032 136.24661 153.04297 136.52539 C 153.28562 136.80417 153.70333 137.03299 154.18359 137.02148 C 154.74094 137.03668 155.37984 137.04179 156.32812 137.02148 C 156.83767 137.02342 157.27492 136.83721 157.60938 136.5918 C 157.94383 136.34639 158.19355 136.05336 158.42969 135.78906 C 158.90195 135.26048 159.23968 134.88379 159.92578 134.87305 C 161.46642 134.88503 161.86247 134.88477 163.4707 134.88477 C 165.11601 134.8848 166.41795 133.4906 166.68555 131.93945 L 166.90625 130.66016 A 0.51369624 0.51369624 0 0 0 166.91016 130.63086 L 167.33203 126.99414 A 0.51369624 0.51369624 0 0 0 167.33398 126.97852 L 167.41406 126.03516 L 167.4082 126.07812 C 167.74556 124.08955 166.24815 122.04545 164.19336 122.04492 L 160.59961 122.04492 A 0.51369624 0.51369624 0 0 0 160.59766 122.04492 C 160.59766 122.04492 159.58426 122.04883 159.03906 122.04883 L 125.27734 122.04883 C 124.13556 122.04883 123.78246 121.68625 123.37109 121.22266 C 123.16541 120.99086 122.96393 120.71855 122.66797 120.47656 C 122.372 120.23457 121.95781 120.0459 121.46289 120.04297 A 0.51369624 0.51369624 0 0 0 121.45898 120.04297 L 116.93359 120.04297 A 0.51369624 0.51369624 0 0 0 116.92578 120.04297 C 116.48178 120.04935 116.11069 120.25482 115.83984 120.48633 C 115.569 120.71784 115.36075 120.97397 115.13281 121.20312 C 114.67694 121.66146 114.2045 122.04883 113.06836 122.04883 L 104.92969 122.04883 C 103.89042 122.04883 103.55159 121.69178 103.16016 121.23047 C 102.96444 120.99981 102.77707 120.73248 102.50586 120.49023 C 102.23465 120.24799 101.84363 120.04563 101.38086 120.04297 A 0.51369624 0.51369624 0 0 0 101.37695 120.04297 L 99.796875 120.04297 L 99.794922 120.04297 C 99.324505 120.04124 98.9172 120.26051 98.681641 120.5293 C 98.445741 120.79847 98.330913 121.0734 98.199219 121.29492 C 98.067524 121.51645 97.939847 121.68296 97.732422 121.8125 C 97.524997 121.94204 97.213486 122.04883 96.660156 122.04883 L 77.947266 122.04883 C 76.81756 122.04883 76.549916 121.70282 76.201172 121.24219 C 76.0268 121.01187 75.858808 120.73511 75.580078 120.48242 C 75.302515 120.23079 74.885845 120.03909 74.394531 120.04297 L 72.8125 120.04297 A 0.51369624 0.51369624 0 0 0 72.806641 120.04297 C 72.315396 120.04887 71.904617 120.24587 71.626953 120.49609 C 71.349289 120.74632 71.175265 121.01944 70.994141 121.24609 C 70.631891 121.69939 70.329869 122.04883 69.148438 122.04883 L 60.517578 122.04883 C 59.819009 122.04883 59.551531 121.73344 59.185547 121.26758 C 59.002555 121.03465 58.82112 120.7688 58.568359 120.52734 C 58.315598 120.28588 57.957546 120.06728 57.523438 120.04297 A 0.51369624 0.51369624 0 0 0 57.494141 120.04297 L 51.503906 120.04297 z "
           xlink:href="#path13861"
           id="path20373"
           inkscape:href="#path13861"
           d="m 51.503906,119.38477 c -1.850349,-7.6e-4 -3.456755,1.30654 -3.835937,3.11718 l -1.6875,8.08008 c -0.506055,2.42255 1.28454,4.95949 3.835937,4.95899 h 1.701172 c 0.529063,0 1.037101,-0.01 1.576172,-0.01 h 7.476562 c 0.64957,0 0.865605,0.10404 1.076172,0.25391 0.210567,0.14986 0.445307,0.44769 0.896485,0.77929 1.376672,1.01179 2.894188,1.11524 4.097656,1.11524 0.567961,0 1.148262,-0.0452 1.734375,-0.15821 0.672122,-0.12957 1.380842,-0.37095 2.060547,-0.77929 0.55241,-0.33164 0.924247,-0.67059 1.257812,-0.88086 0.333566,-0.21027 0.614542,-0.33008 1.167969,-0.33008 h 31.619142 c 0.50148,0 0.70692,0.093 0.9668,0.26563 0.25987,0.17262 0.56597,0.47653 1.05078,0.79882 1.36636,0.9083 2.80857,1.08399 4.05078,1.08399 0.56796,0 1.14826,-0.0452 1.73437,-0.15821 0.6683,-0.12883 1.37547,-0.36962 2.0586,-0.77929 0.012,-0.007 0.0234,-0.0142 0.0351,-0.0215 a 0.65748447,0.65748447 0 0 0 0.0215,-0.0117 c 0.53962,-0.36206 0.90522,-0.70238 1.20508,-0.88281 0.32182,-0.19364 0.56029,-0.29492 1.16796,-0.29492 h 8.70313 c 0.38825,0 0.4756,0.0572 0.55469,0.11133 0.0673,0.0461 0.12729,0.11543 0.23242,0.30273 0.0942,0.16787 0.22867,0.49969 0.51172,0.85157 0.34187,0.42499 0.89344,0.75363 1.57812,0.74218 h 1.5625 c 0.006,3e-5 0.0132,8e-5 0.0195,0 a 0.65748447,0.65748447 0 0 0 0.008,0 c 0.62878,-0.0151 1.13348,-0.29637 1.49218,-0.57617 0.34558,-0.26957 0.60261,-0.55165 0.82813,-0.77148 0.46737,-0.45556 0.67177,-0.66016 1.29101,-0.66016 h 17.45313 c 0.42816,0.003 0.55679,0.0724 0.66016,0.14258 0.0945,0.0641 0.17129,0.15569 0.29492,0.36719 0.11374,0.1946 0.26868,0.55152 0.58594,0.91601 0.37099,0.42623 0.95431,0.73743 1.65234,0.7207 0.5569,0.0148 1.19573,0.0216 2.12695,0.002 0.67115,0.003 1.24496,-0.24535 1.67188,-0.5586 0.40985,-0.30073 0.69316,-0.63854 0.92187,-0.89453 0.23595,-0.26409 0.41466,-0.45265 0.55664,-0.55273 0.14198,-0.10009 0.23452,-0.13907 0.45899,-0.14258 1.52485,0.0118 1.93407,0.0117 3.53515,0.0117 2.01671,4e-5 3.54617,-1.65404 3.86328,-3.49219 l 0.22071,-1.2793 a 0.65748447,0.65748447 0 0 0 0,-0.006 c 0.003,-0.0195 0.006,-0.0389 0.008,-0.0586 l 0.002,-0.008 0.41797,-3.61328 v -0.002 l 0.002,-0.0137 c 8.3e-4,-0.007 0.003,-0.0129 0.004,-0.0195 a 0.65748447,0.65748447 0 0 0 0,-0.0176 l 0.0801,-0.94336 a 0.65748447,0.65748447 0 0 0 -0.0176,-0.0391 c 0.31278,-2.33246 -1.41529,-4.66343 -3.85742,-4.66406 h -3.5918 c -0.001,0 -0.004,0 -0.006,0 0,0 -1.01458,0.004 -1.55664,0.004 h -33.76172 c -1.0026,0 -1.0137,-0.15233 -1.41406,-0.60351 -0.17749,-0.20003 -0.40942,-0.51789 -0.7793,-0.82031 -0.39901,-0.32625 -0.95737,-0.57813 -1.61718,-0.58203 a 0.65748447,0.65748447 0 0 0 -0.002,0 c -0.002,-1e-5 -0.004,-1e-5 -0.006,0 h -4.51953 c -0.006,-5e-5 -0.0136,-5e-5 -0.0195,0 a 0.65748447,0.65748447 0 0 0 -0.004,0 c -0.6415,0.009 -1.15365,0.30217 -1.50391,0.60156 -0.32637,0.27897 -0.5497,0.55647 -0.74609,0.7539 -0.42633,0.42864 -0.61095,0.65039 -1.59766,0.65039 h -8.13867 c -0.8887,0 -0.88897,-0.13973 -1.26758,-0.58593 -0.16751,-0.19742 -0.38052,-0.50258 -0.71875,-0.80469 -0.36969,-0.3302 -0.90631,-0.61149 -1.55859,-0.61523 a 0.65748447,0.65748447 0 0 0 -0.002,0 c -0.002,-1e-5 -0.004,-1e-5 -0.006,0 h -1.580075 -0.002 c -0.675193,-0.002 -1.24146,0.29334 -1.607422,0.71093 -0.312452,0.35652 -0.45736,0.70286 -0.552734,0.86328 -0.110264,0.18548 -0.154454,0.23721 -0.25,0.29688 -0.09428,0.0589 -0.255865,0.13476 -0.72461,0.13476 h -18.71289 c -0.497735,0 -0.717263,-0.0724 -0.839844,-0.14257 -0.122581,-0.0702 -0.209477,-0.1734 -0.382813,-0.40235 -0.144043,-0.19026 -0.344811,-0.52477 -0.703125,-0.84961 -0.395796,-0.35881 -0.964354,-0.61496 -1.626953,-0.61132 h -1.578125 c -0.0045,-3e-5 -0.0092,-3e-5 -0.01367,0 a 0.65748447,0.65748447 0 0 0 -0.0039,0 c -0.662566,0.008 -1.221603,0.27184 -1.611328,0.62304 -0.352909,0.31804 -0.558496,0.64226 -0.707031,0.82813 -0.176931,0.2214 -0.268307,0.3252 -0.41211,0.40234 -0.143802,0.0772 -0.394022,0.15234 -0.919921,0.15234 h -8.63086 c -0.250347,0 -0.326654,-0.0357 -0.419922,-0.0996 -0.09327,-0.064 -0.21508,-0.20127 -0.394531,-0.42969 -0.163284,-0.20785 -0.36627,-0.50919 -0.679687,-0.8086 -0.333686,-0.31876 -0.829265,-0.63053 -1.462891,-0.66601 a 0.65748447,0.65748447 0 0 0 -0.01758,0 c -0.02226,-6.4e-4 -0.0461,-6.4e-4 -0.06836,0 l 0.01953,-0.002 z" />
        <path
           style="color:#000000;-inkscape-font-specification:'Yu Gothic Bold';fill:#b31700;fill-opacity:1;stroke-width:0.264583;-inkscape-stroke:none"
           sodipodi:type="inkscape:offset"
           inkscape:radius="0.51364487"
           inkscape:original="M 51.503906 120.55664 C 50.202609 120.55611 49.07923 121.46852 48.8125 122.74219 L 47.125 130.82227 C 46.768297 132.52986 48.071955 134.36949 49.816406 134.36914 L 51.517578 134.36914 C 52.03193 134.36914 52.540813 134.35938 53.09375 134.35938 L 60.570312 134.35938 C 62.223892 134.35938 62.65147 135.19124 63.236328 135.62109 C 64.316746 136.41515 65.501609 136.50781 66.640625 136.50781 C 67.146617 136.50781 67.650154 136.46792 68.152344 136.37109 C 68.709792 136.26362 69.288947 136.06572 69.833984 135.73828 C 70.689678 135.22456 71.326847 134.35938 72.861328 134.35938 L 104.48047 134.35938 C 105.8907 134.35938 106.41293 135.13345 107.14648 135.62109 C 108.25984 136.3612 109.40982 136.50781 110.54883 136.50781 C 111.05483 136.50781 111.55836 136.46792 112.06055 136.37109 C 112.61589 136.26403 113.19327 136.06727 113.74414 135.73633 C 114.63289 135.14001 115.19125 134.35938 116.77148 134.35938 L 125.47461 134.35938 C 127.70598 134.35938 127.11402 136.38756 128.33203 136.36719 L 129.91406 136.36719 C 131.12178 136.33809 131.57292 134.35938 133.55273 134.35938 L 151.00586 134.35938 C 153.42251 134.37027 152.78107 136.54112 154.17188 136.50781 C 154.72985 136.52331 155.36731 136.52867 156.33008 136.50781 C 157.90603 136.51381 158.13761 134.38727 159.91797 134.35938 C 161.47059 134.37148 161.85707 134.37109 163.4707 134.37109 C 164.80855 134.37112 165.95225 133.16994 166.17969 131.85156 L 166.40039 130.57227 L 166.82227 126.93555 L 166.90234 125.99219 C 167.18694 124.31461 165.89491 122.55903 164.19336 122.55859 L 160.59961 122.55859 C 160.59961 122.55859 159.5867 122.5625 159.03906 122.5625 L 125.27734 122.5625 C 122.7258 122.5625 122.99242 120.56571 121.45898 120.55664 L 116.93359 120.55664 C 115.71633 120.57414 115.60867 122.5625 113.06836 122.5625 L 104.92969 122.5625 C 102.56215 122.5625 102.71739 120.56436 101.37695 120.55664 L 99.794922 120.55664 C 98.404613 120.54964 99.150274 122.5625 96.660156 122.5625 L 77.947266 122.5625 C 75.414367 122.5625 75.916875 120.53955 74.394531 120.55664 L 72.8125 120.55664 C 71.29817 120.57484 71.770848 122.5625 69.148438 122.5625 L 60.517578 122.5625 C 58.745542 122.5625 58.669023 120.62245 57.494141 120.55664 L 51.503906 120.55664 z "
           xlink:href="#path3430"
           id="path13861"
           inkscape:href="#path3430"
           d="m 51.503906,120.04297 c -1.541513,-6.3e-4 -2.877411,1.08506 -3.193359,2.59375 l -1.6875,8.08008 c -0.423023,2.02507 1.087744,4.16643 3.193359,4.16601 h 1.701172 c 0.52085,0 1.029279,-0.01 1.576172,-0.01 h 7.476562 c 1.481316,0 1.617921,0.61573 2.361329,1.16211 1.209451,0.88889 2.542111,0.98632 3.708984,0.98632 0.532988,0 1.07026,-0.0425 1.609375,-0.14648 0.607605,-0.11714 1.243245,-0.33416 1.847656,-0.69727 0.977418,-0.58679 1.422262,-1.30468 2.763672,-1.30468 h 31.619142 c 1.22227,0 1.53221,0.61162 2.38086,1.17578 1.22311,0.81307 2.50441,0.97265 3.6875,0.97265 0.53299,0 1.07026,-0.0425 1.60937,-0.14648 0.60523,-0.11668 1.23997,-0.33297 1.84961,-0.69922 a 0.51369624,0.51369624 0 0 0 0.0234,-0.0137 c 0.48916,-0.32821 0.84503,-0.66534 1.23242,-0.89844 0.38739,-0.2331 0.80228,-0.39062 1.50781,-0.39062 h 8.70313 c 0.48003,0 0.74164,0.10052 0.92578,0.22656 0.18414,0.12604 0.30978,0.29937 0.43555,0.52344 0.12577,0.22406 0.23422,0.49444 0.44922,0.76172 0.215,0.26727 0.60839,0.50355 1.05468,0.49609 h 1.57422 a 0.51369624,0.51369624 0 0 0 0.0117,0 c 0.4413,-0.0106 0.81245,-0.20851 1.10352,-0.43555 0.29106,-0.22704 0.52984,-0.48716 0.77343,-0.72461 0.4872,-0.47489 0.93122,-0.84765 1.75,-0.84765 h 17.45313 c 0.5254,0.003 0.81998,0.11383 1.0293,0.25586 0.20969,0.14228 0.35126,0.33563 0.49414,0.58007 0.14287,0.24445 0.27102,0.53763 0.51367,0.81641 0.24265,0.27878 0.66036,0.5076 1.14062,0.49609 0.55735,0.0152 1.19624,0.0203 2.14453,0 0.50955,0.002 0.9468,-0.18427 1.28126,-0.42968 0.33445,-0.24541 0.58417,-0.53844 0.82031,-0.80274 0.47226,-0.52858 0.80999,-0.90527 1.49609,-0.91601 1.54064,0.012 1.93669,0.0117 3.54492,0.0117 1.64531,3e-5 2.94725,-1.39417 3.21485,-2.94532 l 0.2207,-1.27929 a 0.51369624,0.51369624 0 0 0 0.004,-0.0293 l 0.42187,-3.63672 a 0.51369624,0.51369624 0 0 0 0.002,-0.0156 l 0.0801,-0.94336 -0.006,0.043 c 0.33736,-1.98858 -1.16005,-4.03267 -3.21484,-4.0332 h -3.59375 a 0.51369624,0.51369624 0 0 0 -0.002,0 c 0,0 -1.0134,0.004 -1.5586,0.004 h -33.76172 c -1.14178,0 -1.49488,-0.36258 -1.90625,-0.82617 -0.20568,-0.2318 -0.40716,-0.50411 -0.70312,-0.7461 -0.29597,-0.24199 -0.71016,-0.43066 -1.20508,-0.43359 a 0.51369624,0.51369624 0 0 0 -0.004,0 h -4.52539 a 0.51369624,0.51369624 0 0 0 -0.008,0 c -0.444,0.006 -0.81509,0.21185 -1.08594,0.44336 -0.27084,0.23151 -0.47909,0.48763 -0.70703,0.71679 -0.45587,0.45833 -0.92831,0.84571 -2.06445,0.84571 h -8.13867 c -1.03927,0 -1.3781,-0.35705 -1.76953,-0.81836 -0.19572,-0.23066 -0.38309,-0.49799 -0.6543,-0.74024 -0.27121,-0.24224 -0.66223,-0.4446 -1.125,-0.44726 a 0.51369624,0.51369624 0 0 0 -0.004,0 h -1.580075 -0.002 c -0.470417,-0.002 -0.877722,0.21754 -1.113281,0.48633 -0.2359,0.26917 -0.350728,0.5441 -0.482422,0.76562 -0.131695,0.22153 -0.259372,0.38804 -0.466797,0.51758 -0.207425,0.12954 -0.518936,0.23633 -1.072266,0.23633 h -18.71289 c -1.129706,0 -1.39735,-0.34601 -1.746094,-0.80664 -0.174372,-0.23032 -0.342364,-0.50708 -0.621094,-0.75977 -0.277563,-0.25163 -0.694233,-0.44333 -1.185547,-0.43945 H 72.8125 a 0.51369624,0.51369624 0 0 0 -0.0059,0 c -0.491245,0.006 -0.902024,0.2029 -1.179688,0.45312 -0.277664,0.25023 -0.451688,0.52335 -0.632812,0.75 -0.36225,0.4533 -0.664271,0.80274 -1.845703,0.80274 h -8.63086 c -0.698569,0 -0.966047,-0.31539 -1.332031,-0.78125 -0.182992,-0.23293 -0.364427,-0.49878 -0.617188,-0.74024 -0.252761,-0.24146 -0.610813,-0.46006 -1.044921,-0.48437 a 0.51369624,0.51369624 0 0 0 -0.0293,0 z" />
        <path
           id="path3430"
           style="color:#000000;-inkscape-font-specification:'Yu Gothic Bold';fill:#000000;stroke-width:0.264583;-inkscape-stroke:none"
           d="m 51.503833,120.55698 c -1.301297,-5.3e-4 -2.42458,0.91173 -2.69131,2.1854 l -1.68775,8.08013 c -0.356703,1.70759 0.946856,3.54659 2.691307,3.54624 h 1.702221 c 0.514352,0 1.022678,-0.009 1.575615,-0.009 h 7.476029 c 1.65358,0 2.081647,0.83054 2.666505,1.26039 1.080418,0.79406 2.26491,0.88832 3.403926,0.88832 0.505992,0 1.009861,-0.0396 1.512051,-0.13643 0.557448,-0.10747 1.136515,-0.30715 1.681552,-0.63459 0.855694,-0.51372 1.493241,-1.37769 3.027722,-1.37769 h 31.618229 c 1.41023,0 1.93295,0.77275 2.6665,1.26039 1.11336,0.74011 2.26337,0.88832 3.40238,0.88832 0.506,0 1.00934,-0.0396 1.51153,-0.13643 0.55534,-0.10706 1.13275,-0.30416 1.68362,-0.6351 0.88875,-0.59632 1.44749,-1.37718 3.02772,-1.37718 h 8.70231 c 2.23137,0 1.64022,2.02697 2.85823,2.0066 h 1.58181 c 1.20772,-0.0291 1.65925,-2.0066 3.63906,-2.0066 h 17.45216 c 2.41665,0.0109 1.77593,2.18202 3.16674,2.14871 0.55798,0.0155 1.19563,0.0206 2.1584,-2.6e-4 1.57595,0.006 1.80714,-2.12056 3.5875,-2.14845 1.55262,0.0121 1.93912,0.0118 3.55275,0.0118 1.33785,3e-5 2.48144,-1.20075 2.70888,-2.51913 l 0.22066,-1.2795 0.4213,-3.63647 0.081,-0.94361 c 0.2846,-1.67758 -1.00784,-3.43445 -2.70939,-3.43489 h -3.59255 c 0,0 -1.01402,0.005 -1.56166,0.005 H 125.2767 c -2.55154,0 -2.28523,-1.99649 -3.81867,-2.00556 h -4.52476 c -1.21726,0.0175 -1.32389,2.00556 -3.8642,2.00556 h -8.13954 c -2.36754,0 -2.21232,-1.99784 -3.55276,-2.00556 h -1.582336 c -1.390309,-0.007 -0.644576,2.00556 -3.134694,2.00556 H 77.947191 c -2.532899,0 -2.030413,-2.02265 -3.552757,-2.00556 h -1.582332 c -1.51433,0.0182 -1.041448,2.00556 -3.663859,2.00556 h -8.631524 c -1.772036,0 -1.848189,-1.93975 -3.023071,-2.00556 z"
           sodipodi:nodetypes="ccccsssssscssssscssccscccccccccccssccssccsscccccc" />
      </g>
      <text
         xml:space="preserve"
         style="font-style:normal;font-variant:normal;font-weight:bold;font-stretch:normal;font-size:11.2889px;line-height:1.25;font-family:'Yu Gothic';-inkscape-font-specification:'Yu Gothic Bold';letter-spacing:0px;word-spacing:0px;fill:#b31700;fill-opacity:1;stroke:none;stroke-width:0.264583"
         x="49.490143"
         y="125.98845"
         id="text2058-2-5"><tspan
           sodipodi:role="line"
           id="tspan2056-5-1"
           style="font-style:normal;font-variant:normal;font-weight:bold;font-stretch:normal;font-family:'Yu Gothic';-inkscape-font-specification:'Yu Gothic Bold';fill:#b31700;fill-opacity:1;stroke-width:0.264583"
           x="49.490143"
           y="125.98845"><tspan
             style="font-style:italic;font-variant:normal;font-weight:bold;font-stretch:normal;font-family:Arial;-inkscape-font-specification:'Arial Bold Italic';fill:#ffffff;fill-opacity:1"
             id="tspan243119-9-1"><tspan
   style="fill:#b31700;fill-opacity:1"
   id="tspan269378-2">E</tspan>ngineering<tspan
   style="fill:#b31700;fill-opacity:1"
   id="tspan270244-3">P</tspan>aper</tspan><tspan
             style="font-style:italic;font-variant:normal;font-weight:bold;font-stretch:normal;font-family:Arial;-inkscape-font-specification:'Arial Bold Italic'"
             id="tspan256216-2-2">.</tspan><tspan
             style="font-style:italic;font-variant:normal;font-weight:bold;font-stretch:condensed;font-size:11.2889px;font-family:Arial;-inkscape-font-specification:'Arial Bold Italic Condensed';fill:#b31700;fill-opacity:1"
             id="tspan9082-1-9">xyz</tspan></tspan></text>
    </g>
    <text
       xml:space="preserve"
       style="font-style:normal;font-weight:normal;font-size:11.2889px;line-height:1.25;font-family:sans-serif;letter-spacing:0px;word-spacing:0px;fill:#000000;fill-opacity:1;stroke:none;stroke-width:0.264583"
       x="72.353722"
       y="80.493523"
       id="text27804"><tspan
         sodipodi:role="line"
         id="tspan27802"
         style="stroke-width:0.264583"
         x="72.353722"
         y="80.493523" /></text>
  </g>
</svg>
